<svg width="330" height="73" viewBox="0 0 330 73" fill="none" xmlns="http://www.w3.org/2000/svg">
<path d="M329.5 8.05442C307 1.0544 298 3.05435 268.5 14.5544C239 26.0545 252.5 27.5545 189.5 34.0544C126.5 40.5543 77.5 37.5543 44 72.0544H329.5V8.05442Z" fill="#2BB4D6" fill-opacity="0.5" stroke="#2BB4D6" stroke-opacity="0.6"/>
<path d="M329.5 30.7027C291.053 10.7304 268.562 20.1766 243.604 30.6591L243.5 30.7027C218.5 41.2026 220 46.2027 167.5 46.2027C115 46.2027 65 54.7026 44 71.7027H329.5V30.7027Z" fill="#2BB4D6" fill-opacity="0.5"/>
<path d="M243.5 30.7027C218.5 41.2026 220 46.2027 167.5 46.2027C115 46.2027 65 54.7026 44 71.7027H329.5V30.7027C291.053 10.7304 268.562 20.1766 243.604 30.6591M243.5 30.7027L243.604 30.6591M243.5 30.7027C243.535 30.6882 243.569 30.6736 243.604 30.6591" stroke="#2BB4D6" stroke-opacity="0.6"/>
<path d="M329 30C277 55.5 277.5 53 228.5 53C179.5 53 126 71.5 126 71.5H329V30Z" fill="#2BB4D6" fill-opacity="0.5" stroke="#2BB4D6" stroke-opacity="0.6"/>
<path d="M329.5 27.1979C324 10.6978 300.5 -12.302 230.5 10.6979C160.5 33.6977 182.5 27.6979 140 27.6979C97.5 27.6979 38 32.6979 2 72.1979H329.5V27.1979Z" fill="#2BB4D6" fill-opacity="0.5" stroke="#2BB4D6" stroke-opacity="0.6"/>
</svg>
