<svg width="149" height="177" viewBox="0 0 149 177" fill="none" xmlns="http://www.w3.org/2000/svg">
<g filter="url(#filter0_d_923_5617)">
<rect x="11" y="7" width="127" height="155" rx="11" fill="#2BB4D6" fill-opacity="0.65" shape-rendering="crispEdges"/>
<rect x="11" y="7" width="127" height="155" rx="11" stroke="#2BB4D6" stroke-opacity="0.65" stroke-width="2" shape-rendering="crispEdges"/>
</g>
<mask id="path-2-outside-1_923_5617" maskUnits="userSpaceOnUse" x="33" y="137" width="83" height="14" fill="black">
<rect fill="white" x="33" y="137" width="83" height="14"/>
<path d="M39.3 142.248C39.792 142.392 40.2 142.656 40.524 143.04C40.848 143.412 41.01 143.874 41.01 144.426C41.01 144.942 40.86 145.41 40.56 145.83C40.26 146.238 39.828 146.568 39.264 146.82C38.712 147.06 38.07 147.18 37.338 147.18C36.354 147.18 35.508 146.952 34.8 146.496C34.092 146.028 33.624 145.404 33.396 144.624L35.034 144.354C35.43 145.218 36.192 145.65 37.32 145.65C37.944 145.65 38.418 145.536 38.742 145.308C39.078 145.068 39.246 144.738 39.246 144.318C39.246 143.946 39.09 143.646 38.778 143.418C38.478 143.19 37.992 143.076 37.32 143.076H36.096V141.528H37.32C37.896 141.528 38.334 141.42 38.634 141.204C38.946 140.988 39.102 140.7 39.102 140.34C39.102 139.956 38.934 139.644 38.598 139.404C38.274 139.164 37.872 139.044 37.392 139.044C36.924 139.044 36.504 139.158 36.132 139.386C35.76 139.614 35.478 139.926 35.286 140.322L33.648 140.034C33.924 139.23 34.398 138.612 35.07 138.18C35.754 137.736 36.546 137.514 37.446 137.514C38.094 137.514 38.676 137.628 39.192 137.856C39.72 138.084 40.128 138.402 40.416 138.81C40.716 139.218 40.866 139.674 40.866 140.178C40.866 140.694 40.722 141.132 40.434 141.492C40.146 141.852 39.768 142.104 39.3 142.248ZM41.7414 149.754V145.38H41.9394C42.4554 145.38 42.8454 145.152 43.1094 144.696C43.3854 144.24 43.5654 143.526 43.6494 142.554L44.0994 137.694H50.6874V145.38H52.2534V149.754H50.4894V147H43.5054V149.754H41.7414ZM48.9234 145.38V139.314H45.7374L45.4314 142.554C45.3594 143.322 45.2514 143.928 45.1074 144.372C44.9754 144.816 44.7894 145.152 44.5494 145.38H48.9234ZM57.9863 147.18C57.0383 147.18 56.1923 146.976 55.4483 146.568C54.7043 146.16 54.1223 145.59 53.7023 144.858C53.2823 144.126 53.0723 143.292 53.0723 142.356C53.0723 141.42 53.2823 140.586 53.7023 139.854C54.1223 139.122 54.7043 138.552 55.4483 138.144C56.1923 137.724 57.0383 137.514 57.9863 137.514C58.9343 137.514 59.7803 137.724 60.5243 138.144C61.2683 138.552 61.8503 139.122 62.2703 139.854C62.6903 140.586 62.9003 141.42 62.9003 142.356C62.9003 143.292 62.6903 144.126 62.2703 144.858C61.8503 145.59 61.2683 146.16 60.5243 146.568C59.7803 146.976 58.9343 147.18 57.9863 147.18ZM57.9863 145.56C58.8983 145.56 59.6363 145.266 60.2003 144.678C60.7763 144.09 61.0643 143.316 61.0643 142.356C61.0643 141.396 60.7763 140.622 60.2003 140.034C59.6363 139.434 58.8983 139.134 57.9863 139.134C57.0743 139.134 56.3363 139.434 55.7723 140.034C55.2083 140.622 54.9263 141.396 54.9263 142.356C54.9263 143.304 55.2083 144.078 55.7723 144.678C56.3363 145.266 57.0743 145.56 57.9863 145.56ZM64.7919 150.69V137.694H66.0699L66.5019 139.242C66.8859 138.75 67.3719 138.342 67.9599 138.018C68.5599 137.682 69.2559 137.514 70.0479 137.514C70.9239 137.514 71.7039 137.724 72.3879 138.144C73.0719 138.552 73.6059 139.122 73.9899 139.854C74.3859 140.586 74.5839 141.42 74.5839 142.356C74.5839 143.28 74.3859 144.108 73.9899 144.84C73.6059 145.572 73.0719 146.148 72.3879 146.568C71.7039 146.976 70.9239 147.18 70.0479 147.18C69.2799 147.18 68.6019 147.024 68.0139 146.712C67.4259 146.388 66.9399 145.992 66.5559 145.524V150.69H64.7919ZM69.6699 145.596C70.2699 145.596 70.8039 145.458 71.2719 145.182C71.7399 144.906 72.0999 144.522 72.3519 144.03C72.6159 143.538 72.7479 142.98 72.7479 142.356C72.7479 141.732 72.6159 141.174 72.3519 140.682C72.0999 140.19 71.7399 139.806 71.2719 139.53C70.8039 139.254 70.2699 139.116 69.6699 139.116C69.0699 139.116 68.5299 139.254 68.0499 139.53C67.5819 139.806 67.2159 140.19 66.9519 140.682C66.6879 141.174 66.5559 141.732 66.5559 142.356C66.5559 142.98 66.6879 143.538 66.9519 144.03C67.2159 144.522 67.5819 144.906 68.0499 145.182C68.5299 145.458 69.0699 145.596 69.6699 145.596ZM80.8554 147.18C79.9074 147.18 79.0614 146.976 78.3174 146.568C77.5734 146.16 76.9914 145.59 76.5714 144.858C76.1514 144.126 75.9414 143.292 75.9414 142.356C75.9414 141.42 76.1514 140.586 76.5714 139.854C76.9914 139.122 77.5734 138.552 78.3174 138.144C79.0614 137.724 79.9074 137.514 80.8554 137.514C81.8034 137.514 82.6494 137.724 83.3934 138.144C84.1374 138.552 84.7194 139.122 85.1394 139.854C85.5594 140.586 85.7694 141.42 85.7694 142.356C85.7694 143.292 85.5594 144.126 85.1394 144.858C84.7194 145.59 84.1374 146.16 83.3934 146.568C82.6494 146.976 81.8034 147.18 80.8554 147.18ZM80.8554 145.56C81.7674 145.56 82.5054 145.266 83.0694 144.678C83.6454 144.09 83.9334 143.316 83.9334 142.356C83.9334 141.396 83.6454 140.622 83.0694 140.034C82.5054 139.434 81.7674 139.134 80.8554 139.134C79.9434 139.134 79.2054 139.434 78.6414 140.034C78.0774 140.622 77.7954 141.396 77.7954 142.356C77.7954 143.304 78.0774 144.078 78.6414 144.678C79.2054 145.266 79.9434 145.56 80.8554 145.56ZM93.8351 142.122C94.3151 142.302 94.6991 142.596 94.9871 143.004C95.2871 143.4 95.4371 143.868 95.4371 144.408C95.4371 144.9 95.2931 145.344 95.0051 145.74C94.7291 146.136 94.3391 146.448 93.8351 146.676C93.3311 146.892 92.7551 147 92.1071 147H87.6611V137.694H91.9451C92.5571 137.694 93.1031 137.802 93.5831 138.018C94.0631 138.234 94.4351 138.528 94.6991 138.9C94.9751 139.272 95.1131 139.698 95.1131 140.178C95.1131 140.634 94.9991 141.03 94.7711 141.366C94.5551 141.69 94.2431 141.942 93.8351 142.122ZM89.4251 139.188V141.474H91.9451C92.3531 141.474 92.6891 141.372 92.9531 141.168C93.2171 140.952 93.3491 140.676 93.3491 140.34C93.3491 140.004 93.2171 139.728 92.9531 139.512C92.6891 139.296 92.3531 139.188 91.9451 139.188H89.4251ZM92.1071 145.506C92.5751 145.506 92.9531 145.386 93.2411 145.146C93.5291 144.906 93.6731 144.594 93.6731 144.21C93.6731 143.826 93.5291 143.514 93.2411 143.274C92.9531 143.034 92.5751 142.914 92.1071 142.914H89.4251V145.506H92.1071ZM97.4169 147V137.694H99.1809V140.43H100.999C101.719 140.43 102.361 140.568 102.925 140.844C103.489 141.12 103.927 141.51 104.239 142.014C104.563 142.506 104.725 143.07 104.725 143.706C104.725 144.342 104.563 144.912 104.239 145.416C103.927 145.908 103.489 146.298 102.925 146.586C102.361 146.862 101.719 147 100.999 147H97.4169ZM100.999 145.452C101.575 145.452 102.043 145.29 102.403 144.966C102.775 144.642 102.961 144.222 102.961 143.706C102.961 143.202 102.775 142.788 102.403 142.464C102.043 142.14 101.575 141.978 100.999 141.978H99.1809V145.452H100.999ZM115.417 142.284C115.417 142.524 115.411 142.71 115.399 142.842H107.713C107.809 143.67 108.133 144.33 108.685 144.822C109.237 145.314 109.939 145.56 110.791 145.56C111.379 145.56 111.901 145.446 112.357 145.218C112.825 144.978 113.179 144.666 113.419 144.282L115.075 144.552C114.715 145.392 114.133 146.04 113.329 146.496C112.537 146.952 111.655 147.18 110.683 147.18C109.759 147.18 108.931 146.976 108.199 146.568C107.467 146.148 106.897 145.572 106.489 144.84C106.081 144.108 105.877 143.28 105.877 142.356C105.877 141.42 106.081 140.586 106.489 139.854C106.897 139.122 107.461 138.552 108.181 138.144C108.901 137.724 109.723 137.514 110.647 137.514C111.559 137.514 112.375 137.724 113.095 138.144C113.827 138.552 114.397 139.122 114.805 139.854C115.213 140.574 115.417 141.384 115.417 142.284ZM110.647 139.08C109.939 139.08 109.327 139.29 108.811 139.71C108.307 140.13 107.971 140.694 107.803 141.402H113.491C113.335 140.706 112.999 140.148 112.483 139.728C111.979 139.296 111.367 139.08 110.647 139.08Z"/>
</mask>
<path d="M39.3 142.248C39.792 142.392 40.2 142.656 40.524 143.04C40.848 143.412 41.01 143.874 41.01 144.426C41.01 144.942 40.86 145.41 40.56 145.83C40.26 146.238 39.828 146.568 39.264 146.82C38.712 147.06 38.07 147.18 37.338 147.18C36.354 147.18 35.508 146.952 34.8 146.496C34.092 146.028 33.624 145.404 33.396 144.624L35.034 144.354C35.43 145.218 36.192 145.65 37.32 145.65C37.944 145.65 38.418 145.536 38.742 145.308C39.078 145.068 39.246 144.738 39.246 144.318C39.246 143.946 39.09 143.646 38.778 143.418C38.478 143.19 37.992 143.076 37.32 143.076H36.096V141.528H37.32C37.896 141.528 38.334 141.42 38.634 141.204C38.946 140.988 39.102 140.7 39.102 140.34C39.102 139.956 38.934 139.644 38.598 139.404C38.274 139.164 37.872 139.044 37.392 139.044C36.924 139.044 36.504 139.158 36.132 139.386C35.76 139.614 35.478 139.926 35.286 140.322L33.648 140.034C33.924 139.23 34.398 138.612 35.07 138.18C35.754 137.736 36.546 137.514 37.446 137.514C38.094 137.514 38.676 137.628 39.192 137.856C39.72 138.084 40.128 138.402 40.416 138.81C40.716 139.218 40.866 139.674 40.866 140.178C40.866 140.694 40.722 141.132 40.434 141.492C40.146 141.852 39.768 142.104 39.3 142.248ZM41.7414 149.754V145.38H41.9394C42.4554 145.38 42.8454 145.152 43.1094 144.696C43.3854 144.24 43.5654 143.526 43.6494 142.554L44.0994 137.694H50.6874V145.38H52.2534V149.754H50.4894V147H43.5054V149.754H41.7414ZM48.9234 145.38V139.314H45.7374L45.4314 142.554C45.3594 143.322 45.2514 143.928 45.1074 144.372C44.9754 144.816 44.7894 145.152 44.5494 145.38H48.9234ZM57.9863 147.18C57.0383 147.18 56.1923 146.976 55.4483 146.568C54.7043 146.16 54.1223 145.59 53.7023 144.858C53.2823 144.126 53.0723 143.292 53.0723 142.356C53.0723 141.42 53.2823 140.586 53.7023 139.854C54.1223 139.122 54.7043 138.552 55.4483 138.144C56.1923 137.724 57.0383 137.514 57.9863 137.514C58.9343 137.514 59.7803 137.724 60.5243 138.144C61.2683 138.552 61.8503 139.122 62.2703 139.854C62.6903 140.586 62.9003 141.42 62.9003 142.356C62.9003 143.292 62.6903 144.126 62.2703 144.858C61.8503 145.59 61.2683 146.16 60.5243 146.568C59.7803 146.976 58.9343 147.18 57.9863 147.18ZM57.9863 145.56C58.8983 145.56 59.6363 145.266 60.2003 144.678C60.7763 144.09 61.0643 143.316 61.0643 142.356C61.0643 141.396 60.7763 140.622 60.2003 140.034C59.6363 139.434 58.8983 139.134 57.9863 139.134C57.0743 139.134 56.3363 139.434 55.7723 140.034C55.2083 140.622 54.9263 141.396 54.9263 142.356C54.9263 143.304 55.2083 144.078 55.7723 144.678C56.3363 145.266 57.0743 145.56 57.9863 145.56ZM64.7919 150.69V137.694H66.0699L66.5019 139.242C66.8859 138.75 67.3719 138.342 67.9599 138.018C68.5599 137.682 69.2559 137.514 70.0479 137.514C70.9239 137.514 71.7039 137.724 72.3879 138.144C73.0719 138.552 73.6059 139.122 73.9899 139.854C74.3859 140.586 74.5839 141.42 74.5839 142.356C74.5839 143.28 74.3859 144.108 73.9899 144.84C73.6059 145.572 73.0719 146.148 72.3879 146.568C71.7039 146.976 70.9239 147.18 70.0479 147.18C69.2799 147.18 68.6019 147.024 68.0139 146.712C67.4259 146.388 66.9399 145.992 66.5559 145.524V150.69H64.7919ZM69.6699 145.596C70.2699 145.596 70.8039 145.458 71.2719 145.182C71.7399 144.906 72.0999 144.522 72.3519 144.03C72.6159 143.538 72.7479 142.98 72.7479 142.356C72.7479 141.732 72.6159 141.174 72.3519 140.682C72.0999 140.19 71.7399 139.806 71.2719 139.53C70.8039 139.254 70.2699 139.116 69.6699 139.116C69.0699 139.116 68.5299 139.254 68.0499 139.53C67.5819 139.806 67.2159 140.19 66.9519 140.682C66.6879 141.174 66.5559 141.732 66.5559 142.356C66.5559 142.98 66.6879 143.538 66.9519 144.03C67.2159 144.522 67.5819 144.906 68.0499 145.182C68.5299 145.458 69.0699 145.596 69.6699 145.596ZM80.8554 147.18C79.9074 147.18 79.0614 146.976 78.3174 146.568C77.5734 146.16 76.9914 145.59 76.5714 144.858C76.1514 144.126 75.9414 143.292 75.9414 142.356C75.9414 141.42 76.1514 140.586 76.5714 139.854C76.9914 139.122 77.5734 138.552 78.3174 138.144C79.0614 137.724 79.9074 137.514 80.8554 137.514C81.8034 137.514 82.6494 137.724 83.3934 138.144C84.1374 138.552 84.7194 139.122 85.1394 139.854C85.5594 140.586 85.7694 141.42 85.7694 142.356C85.7694 143.292 85.5594 144.126 85.1394 144.858C84.7194 145.59 84.1374 146.16 83.3934 146.568C82.6494 146.976 81.8034 147.18 80.8554 147.18ZM80.8554 145.56C81.7674 145.56 82.5054 145.266 83.0694 144.678C83.6454 144.09 83.9334 143.316 83.9334 142.356C83.9334 141.396 83.6454 140.622 83.0694 140.034C82.5054 139.434 81.7674 139.134 80.8554 139.134C79.9434 139.134 79.2054 139.434 78.6414 140.034C78.0774 140.622 77.7954 141.396 77.7954 142.356C77.7954 143.304 78.0774 144.078 78.6414 144.678C79.2054 145.266 79.9434 145.56 80.8554 145.56ZM93.8351 142.122C94.3151 142.302 94.6991 142.596 94.9871 143.004C95.2871 143.4 95.4371 143.868 95.4371 144.408C95.4371 144.9 95.2931 145.344 95.0051 145.74C94.7291 146.136 94.3391 146.448 93.8351 146.676C93.3311 146.892 92.7551 147 92.1071 147H87.6611V137.694H91.9451C92.5571 137.694 93.1031 137.802 93.5831 138.018C94.0631 138.234 94.4351 138.528 94.6991 138.9C94.9751 139.272 95.1131 139.698 95.1131 140.178C95.1131 140.634 94.9991 141.03 94.7711 141.366C94.5551 141.69 94.2431 141.942 93.8351 142.122ZM89.4251 139.188V141.474H91.9451C92.3531 141.474 92.6891 141.372 92.9531 141.168C93.2171 140.952 93.3491 140.676 93.3491 140.34C93.3491 140.004 93.2171 139.728 92.9531 139.512C92.6891 139.296 92.3531 139.188 91.9451 139.188H89.4251ZM92.1071 145.506C92.5751 145.506 92.9531 145.386 93.2411 145.146C93.5291 144.906 93.6731 144.594 93.6731 144.21C93.6731 143.826 93.5291 143.514 93.2411 143.274C92.9531 143.034 92.5751 142.914 92.1071 142.914H89.4251V145.506H92.1071ZM97.4169 147V137.694H99.1809V140.43H100.999C101.719 140.43 102.361 140.568 102.925 140.844C103.489 141.12 103.927 141.51 104.239 142.014C104.563 142.506 104.725 143.07 104.725 143.706C104.725 144.342 104.563 144.912 104.239 145.416C103.927 145.908 103.489 146.298 102.925 146.586C102.361 146.862 101.719 147 100.999 147H97.4169ZM100.999 145.452C101.575 145.452 102.043 145.29 102.403 144.966C102.775 144.642 102.961 144.222 102.961 143.706C102.961 143.202 102.775 142.788 102.403 142.464C102.043 142.14 101.575 141.978 100.999 141.978H99.1809V145.452H100.999ZM115.417 142.284C115.417 142.524 115.411 142.71 115.399 142.842H107.713C107.809 143.67 108.133 144.33 108.685 144.822C109.237 145.314 109.939 145.56 110.791 145.56C111.379 145.56 111.901 145.446 112.357 145.218C112.825 144.978 113.179 144.666 113.419 144.282L115.075 144.552C114.715 145.392 114.133 146.04 113.329 146.496C112.537 146.952 111.655 147.18 110.683 147.18C109.759 147.18 108.931 146.976 108.199 146.568C107.467 146.148 106.897 145.572 106.489 144.84C106.081 144.108 105.877 143.28 105.877 142.356C105.877 141.42 106.081 140.586 106.489 139.854C106.897 139.122 107.461 138.552 108.181 138.144C108.901 137.724 109.723 137.514 110.647 137.514C111.559 137.514 112.375 137.724 113.095 138.144C113.827 138.552 114.397 139.122 114.805 139.854C115.213 140.574 115.417 141.384 115.417 142.284ZM110.647 139.08C109.939 139.08 109.327 139.29 108.811 139.71C108.307 140.13 107.971 140.694 107.803 141.402H113.491C113.335 140.706 112.999 140.148 112.483 139.728C111.979 139.296 111.367 139.08 110.647 139.08Z" fill="white"/>
<path d="M39.3 142.248L39.2706 142.152L38.9522 142.25L39.2719 142.344L39.3 142.248ZM40.524 143.04L40.4476 143.104L40.4486 143.106L40.524 143.04ZM40.56 145.83L40.6406 145.889L40.6414 145.888L40.56 145.83ZM39.264 146.82L39.3039 146.912L39.3048 146.911L39.264 146.82ZM34.8 146.496L34.7449 146.579L34.7459 146.58L34.8 146.496ZM33.396 144.624L33.3797 144.525L33.2683 144.544L33.3 144.652L33.396 144.624ZM35.034 144.354L35.1249 144.312L35.0931 144.243L35.0177 144.255L35.034 144.354ZM38.742 145.308L38.7996 145.39L38.8001 145.389L38.742 145.308ZM38.778 143.418L38.7175 143.498L38.719 143.499L38.778 143.418ZM36.096 143.076H35.996V143.176H36.096V143.076ZM36.096 141.528V141.428H35.996V141.528H36.096ZM38.634 141.204L38.5771 141.122L38.5756 141.123L38.634 141.204ZM38.598 139.404L38.5385 139.484L38.5399 139.485L38.598 139.404ZM36.132 139.386L36.1843 139.471L36.132 139.386ZM35.286 140.322L35.2687 140.42L35.343 140.434L35.376 140.366L35.286 140.322ZM33.648 140.034L33.5534 140.002L33.5154 140.112L33.6307 140.132L33.648 140.034ZM35.07 138.18L35.1241 138.264L35.1244 138.264L35.07 138.18ZM39.192 137.856L39.1516 137.947L39.1524 137.948L39.192 137.856ZM40.416 138.81L40.3343 138.868L40.3354 138.869L40.416 138.81ZM39.2719 142.344C39.7455 142.483 40.1365 142.736 40.4476 143.104L40.6004 142.976C40.2635 142.576 39.8385 142.301 39.3281 142.152L39.2719 142.344ZM40.4486 143.106C40.7548 143.457 40.91 143.895 40.91 144.426H41.11C41.11 143.853 40.9412 143.367 40.5994 142.974L40.4486 143.106ZM40.91 144.426C40.91 144.921 40.7665 145.369 40.4786 145.772L40.6414 145.888C40.9535 145.451 41.11 144.963 41.11 144.426H40.91ZM40.4794 145.771C40.1917 146.162 39.7749 146.482 39.2232 146.729L39.3048 146.911C39.8811 146.654 40.3283 146.314 40.6406 145.889L40.4794 145.771ZM39.2241 146.728C38.6871 146.962 38.0592 147.08 37.338 147.08V147.28C38.0808 147.28 38.7369 147.158 39.3039 146.912L39.2241 146.728ZM37.338 147.08C36.3699 147.08 35.5434 146.856 34.8541 146.412L34.7459 146.58C35.4726 147.048 36.3381 147.28 37.338 147.28V147.08ZM34.8551 146.413C34.1659 145.957 33.713 145.352 33.492 144.596L33.3 144.652C33.535 145.456 34.0181 146.099 34.7449 146.579L34.8551 146.413ZM33.4123 144.723L35.0503 144.453L35.0177 144.255L33.3797 144.525L33.4123 144.723ZM34.9431 144.396C35.1491 144.845 35.4523 145.186 35.8532 145.413C36.2529 145.64 36.7436 145.75 37.32 145.75V145.55C36.7684 145.55 36.3141 145.444 35.9518 145.239C35.5907 145.034 35.3149 144.727 35.1249 144.312L34.9431 144.396ZM37.32 145.75C37.9536 145.75 38.4515 145.635 38.7995 145.39L38.6845 145.226C38.3845 145.437 37.9344 145.55 37.32 145.55V145.75ZM38.8001 145.389C39.1629 145.13 39.346 144.77 39.346 144.318H39.146C39.146 144.706 38.9931 145.006 38.6839 145.227L38.8001 145.389ZM39.346 144.318C39.346 143.913 39.1736 143.583 38.837 143.337L38.719 143.499C39.0064 143.709 39.146 143.979 39.146 144.318H39.346ZM38.8385 143.338C38.512 143.09 37.9987 142.976 37.32 142.976V143.176C37.9853 143.176 38.444 143.29 38.7175 143.498L38.8385 143.338ZM37.32 142.976H36.096V143.176H37.32V142.976ZM36.196 143.076V141.528H35.996V143.076H36.196ZM36.096 141.628H37.32V141.428H36.096V141.628ZM37.32 141.628C37.9061 141.628 38.3683 141.519 38.6924 141.285L38.5756 141.123C38.2997 141.321 37.8859 141.428 37.32 141.428V141.628ZM38.6909 141.286C39.0282 141.053 39.202 140.735 39.202 140.34H39.002C39.002 140.665 38.8638 140.923 38.5771 141.122L38.6909 141.286ZM39.202 140.34C39.202 139.921 39.0161 139.58 38.6561 139.323L38.5399 139.485C38.8519 139.708 39.002 139.991 39.002 140.34H39.202ZM38.6575 139.324C38.3132 139.069 37.8892 138.944 37.392 138.944V139.144C37.8548 139.144 38.2348 139.259 38.5385 139.484L38.6575 139.324ZM37.392 138.944C36.9069 138.944 36.4686 139.062 36.0797 139.301L36.1843 139.471C36.5394 139.254 36.9411 139.144 37.392 139.144V138.944ZM36.0797 139.301C35.6913 139.539 35.3963 139.865 35.196 140.278L35.376 140.366C35.5597 139.987 35.8287 139.689 36.1843 139.471L36.0797 139.301ZM35.3033 140.224L33.6653 139.936L33.6307 140.132L35.2687 140.42L35.3033 140.224ZM33.7426 140.066C34.0118 139.282 34.4723 138.683 35.1241 138.264L35.0159 138.096C34.3237 138.541 33.8362 139.178 33.5534 140.002L33.7426 140.066ZM35.1244 138.264C35.7906 137.831 36.5632 137.614 37.446 137.614V137.414C36.5288 137.414 35.7174 137.641 35.0156 138.096L35.1244 138.264ZM37.446 137.614C38.0821 137.614 38.6501 137.726 39.1516 137.947L39.2324 137.765C38.7019 137.53 38.1059 137.414 37.446 137.414V137.614ZM39.1524 137.948C39.6661 138.17 40.0584 138.477 40.3343 138.868L40.4977 138.752C40.1976 138.327 39.7739 137.998 39.2316 137.764L39.1524 137.948ZM40.3354 138.869C40.6229 139.26 40.766 139.695 40.766 140.178H40.966C40.966 139.653 40.8091 139.176 40.4966 138.751L40.3354 138.869ZM40.766 140.178C40.766 140.674 40.628 141.089 40.3559 141.43L40.5121 141.554C40.816 141.175 40.966 140.714 40.966 140.178H40.766ZM40.3559 141.43C40.0812 141.773 39.7207 142.014 39.2706 142.152L39.3294 142.344C39.8153 142.194 40.2108 141.931 40.5121 141.554L40.3559 141.43ZM41.7414 149.754H41.6414V149.854H41.7414V149.754ZM41.7414 145.38V145.28H41.6414V145.38H41.7414ZM43.1094 144.696L43.0238 144.644L43.0228 144.646L43.1094 144.696ZM43.6494 142.554L43.5498 142.545L43.5498 142.545L43.6494 142.554ZM44.0994 137.694V137.594H44.0082L43.9998 137.685L44.0994 137.694ZM50.6874 137.694H50.7874V137.594H50.6874V137.694ZM50.6874 145.38H50.5874V145.48H50.6874V145.38ZM52.2534 145.38H52.3534V145.28H52.2534V145.38ZM52.2534 149.754V149.854H52.3534V149.754H52.2534ZM50.4894 149.754H50.3894V149.854H50.4894V149.754ZM50.4894 147H50.5894V146.9H50.4894V147ZM43.5054 147V146.9H43.4054V147H43.5054ZM43.5054 149.754V149.854H43.6054V149.754H43.5054ZM48.9234 145.38V145.48H49.0234V145.38H48.9234ZM48.9234 139.314H49.0234V139.214H48.9234V139.314ZM45.7374 139.314V139.214H45.6464L45.6378 139.305L45.7374 139.314ZM45.4314 142.554L45.3318 142.545L45.3318 142.545L45.4314 142.554ZM45.1074 144.372L45.0122 144.341L45.0115 144.344L45.1074 144.372ZM44.5494 145.38L44.4805 145.308L44.2989 145.48H44.5494V145.38ZM41.8414 149.754V145.38H41.6414V149.754H41.8414ZM41.7414 145.48H41.9394V145.28H41.7414V145.48ZM41.9394 145.48C42.492 145.48 42.9145 145.232 43.1959 144.746L43.0228 144.646C42.7763 145.072 42.4188 145.28 41.9394 145.28V145.48ZM43.1949 144.748C43.483 144.272 43.6646 143.539 43.749 142.563L43.5498 142.545C43.4662 143.513 43.2878 144.208 43.0238 144.644L43.1949 144.748ZM43.749 142.563L44.199 137.703L43.9998 137.685L43.5498 142.545L43.749 142.563ZM44.0994 137.794H50.6874V137.594H44.0994V137.794ZM50.5874 137.694V145.38H50.7874V137.694H50.5874ZM50.6874 145.48H52.2534V145.28H50.6874V145.48ZM52.1534 145.38V149.754H52.3534V145.38H52.1534ZM52.2534 149.654H50.4894V149.854H52.2534V149.654ZM50.5894 149.754V147H50.3894V149.754H50.5894ZM50.4894 146.9H43.5054V147.1H50.4894V146.9ZM43.4054 147V149.754H43.6054V147H43.4054ZM43.5054 149.654H41.7414V149.854H43.5054V149.654ZM49.0234 145.38V139.314H48.8234V145.38H49.0234ZM48.9234 139.214H45.7374V139.414H48.9234V139.214ZM45.6378 139.305L45.3318 142.545L45.5309 142.563L45.8369 139.323L45.6378 139.305ZM45.3318 142.545C45.2601 143.309 45.153 143.907 45.0123 144.341L45.2025 144.403C45.3498 143.949 45.4587 143.335 45.531 142.563L45.3318 142.545ZM45.0115 144.344C44.8826 144.777 44.7038 145.095 44.4805 145.308L44.6183 145.452C44.875 145.209 45.0681 144.855 45.2032 144.4L45.0115 144.344ZM44.5494 145.48H48.9234V145.28H44.5494V145.48ZM55.4482 146.568L55.4963 146.48L55.4482 146.568ZM53.7022 144.858L53.6155 144.908L53.7022 144.858ZM53.7022 139.854L53.789 139.904L53.7022 139.854ZM55.4482 138.144L55.4963 138.232L55.4974 138.231L55.4482 138.144ZM60.5243 138.144L60.4751 138.231L60.4762 138.232L60.5243 138.144ZM62.2703 139.854L62.357 139.804L62.2703 139.854ZM62.2703 144.858L62.357 144.908L62.2703 144.858ZM60.5243 146.568L60.5723 146.656L60.5243 146.568ZM60.2003 144.678L60.1288 144.608L60.1281 144.609L60.2003 144.678ZM60.2003 140.034L60.1274 140.103L60.1288 140.104L60.2003 140.034ZM55.7722 140.034L55.8444 140.103L55.8451 140.102L55.7722 140.034ZM55.7722 144.678L55.6994 144.746L55.7001 144.747L55.7722 144.678ZM57.9862 147.08C57.0531 147.08 56.2239 146.879 55.4963 146.48L55.4002 146.656C56.1606 147.073 57.0234 147.28 57.9862 147.28V147.08ZM55.4963 146.48C54.7684 146.081 54.1998 145.524 53.789 144.808L53.6155 144.908C54.0447 145.656 54.6401 146.239 55.4002 146.656L55.4963 146.48ZM53.789 144.808C53.3786 144.093 53.1723 143.276 53.1723 142.356H52.9722C52.9722 143.308 53.1859 144.159 53.6155 144.908L53.789 144.808ZM53.1723 142.356C53.1723 141.436 53.3786 140.619 53.789 139.904L53.6155 139.804C53.1859 140.553 52.9722 141.404 52.9722 142.356H53.1723ZM53.789 139.904C54.1998 139.188 54.7684 138.631 55.4963 138.232L55.4002 138.056C54.6401 138.473 54.0447 139.056 53.6155 139.804L53.789 139.904ZM55.4974 138.231C56.2248 137.82 57.0535 137.614 57.9862 137.614V137.414C57.023 137.414 56.1597 137.628 55.3991 138.057L55.4974 138.231ZM57.9862 137.614C58.919 137.614 59.7477 137.82 60.4751 138.231L60.5734 138.057C59.8128 137.628 58.9495 137.414 57.9862 137.414V137.614ZM60.4762 138.232C61.2041 138.631 61.7727 139.188 62.1835 139.904L62.357 139.804C61.9278 139.056 61.3324 138.473 60.5723 138.056L60.4762 138.232ZM62.1835 139.904C62.5939 140.619 62.8003 141.436 62.8003 142.356H63.0002C63.0002 141.404 62.7866 140.553 62.357 139.804L62.1835 139.904ZM62.8003 142.356C62.8003 143.276 62.5939 144.093 62.1835 144.808L62.357 144.908C62.7866 144.159 63.0002 143.308 63.0002 142.356H62.8003ZM62.1835 144.808C61.7727 145.524 61.2041 146.081 60.4762 146.48L60.5723 146.656C61.3324 146.239 61.9278 145.656 62.357 144.908L62.1835 144.808ZM60.4762 146.48C59.7486 146.879 58.9194 147.08 57.9862 147.08V147.28C58.9491 147.28 59.8119 147.073 60.5723 146.656L60.4762 146.48ZM57.9862 145.66C58.9219 145.66 59.6872 145.357 60.2724 144.747L60.1281 144.609C59.5853 145.175 58.8746 145.46 57.9862 145.46V145.66ZM60.2717 144.748C60.869 144.138 61.1643 143.337 61.1643 142.356H60.9643C60.9643 143.295 60.6835 144.042 60.1288 144.608L60.2717 144.748ZM61.1643 142.356C61.1643 141.375 60.869 140.574 60.2717 139.964L60.1288 140.104C60.6835 140.67 60.9643 141.417 60.9643 142.356H61.1643ZM60.2731 139.966C59.6881 139.343 58.9226 139.034 57.9862 139.034V139.234C58.8739 139.234 59.5844 139.525 60.1274 140.102L60.2731 139.966ZM57.9862 139.034C57.0499 139.034 56.2844 139.343 55.6994 139.966L55.8451 140.102C56.3881 139.525 57.0986 139.234 57.9862 139.234V139.034ZM55.7001 139.965C55.1151 140.575 54.8263 141.375 54.8263 142.356H55.0263C55.0263 141.417 55.3014 140.669 55.8444 140.103L55.7001 139.965ZM54.8263 142.356C54.8263 143.325 55.1153 144.125 55.6994 144.746L55.8451 144.61C55.3012 144.031 55.0263 143.283 55.0263 142.356H54.8263ZM55.7001 144.747C56.2853 145.357 57.0506 145.66 57.9862 145.66V145.46C57.0979 145.46 56.3872 145.175 55.8444 144.609L55.7001 144.747ZM64.7919 150.69H64.6919V150.79H64.7919V150.69ZM64.7919 137.694V137.594H64.6919V137.694H64.7919ZM66.0699 137.694L66.1663 137.667L66.1459 137.594H66.0699V137.694ZM66.5019 139.242L66.4056 139.269L66.4589 139.46L66.5808 139.304L66.5019 139.242ZM67.9599 138.018L68.0082 138.106L68.0088 138.105L67.9599 138.018ZM72.3879 138.144L72.3356 138.229L72.3367 138.23L72.3879 138.144ZM73.9899 139.854L73.9014 139.9L73.902 139.902L73.9899 139.854ZM73.9899 144.84L73.902 144.792L73.9014 144.794L73.9899 144.84ZM72.3879 146.568L72.4392 146.654L72.4403 146.653L72.3879 146.568ZM68.0139 146.712L67.9657 146.8L67.9671 146.8L68.0139 146.712ZM66.5559 145.524L66.6332 145.461L66.4559 145.244V145.524H66.5559ZM66.5559 150.69V150.79H66.6559V150.69H66.5559ZM72.3519 144.03L72.2638 143.983L72.2629 143.984L72.3519 144.03ZM72.3519 140.682L72.2629 140.728L72.2638 140.729L72.3519 140.682ZM68.0499 139.53L68.0001 139.443L67.9991 139.444L68.0499 139.53ZM66.9519 144.03L66.8638 144.077L66.9519 144.03ZM68.0499 145.182L67.9991 145.268L68.0001 145.269L68.0499 145.182ZM64.8919 150.69V137.694H64.6919V150.69H64.8919ZM64.7919 137.794H66.0699V137.594H64.7919V137.794ZM65.9736 137.721L66.4056 139.269L66.5983 139.215L66.1663 137.667L65.9736 137.721ZM66.5808 139.304C66.9558 138.823 67.4311 138.424 68.0082 138.106L67.9117 137.93C67.3127 138.26 66.816 138.677 66.4231 139.18L66.5808 139.304ZM68.0088 138.105C68.5917 137.779 69.2704 137.614 70.0479 137.614V137.414C69.2415 137.414 68.5281 137.585 67.9111 137.931L68.0088 138.105ZM70.0479 137.614C70.9072 137.614 71.6688 137.82 72.3356 138.229L72.4403 138.059C71.7391 137.628 70.9407 137.414 70.0479 137.414V137.614ZM72.3367 138.23C73.0043 138.628 73.5256 139.184 73.9014 139.9L74.0785 139.808C73.6863 139.06 73.1396 138.476 72.4392 138.058L72.3367 138.23ZM73.902 139.902C74.2891 140.617 74.4839 141.435 74.4839 142.356H74.6839C74.6839 141.405 74.4827 140.555 74.0779 139.806L73.902 139.902ZM74.4839 142.356C74.4839 143.265 74.2892 144.077 73.902 144.792L74.0779 144.888C74.4826 144.139 74.6839 143.295 74.6839 142.356H74.4839ZM73.9014 144.794C73.5255 145.51 73.0038 146.072 72.3356 146.483L72.4403 146.653C73.1401 146.224 73.6864 145.634 74.0785 144.886L73.9014 144.794ZM72.3367 146.482C71.6697 146.88 70.9078 147.08 70.0479 147.08V147.28C70.9401 147.28 71.7382 147.072 72.4392 146.654L72.3367 146.482ZM70.0479 147.08C69.2938 147.08 68.6323 146.927 68.0608 146.624L67.9671 146.8C68.5716 147.121 69.2661 147.28 70.0479 147.28V147.08ZM68.0622 146.624C67.4841 146.306 67.0084 145.918 66.6332 145.461L66.4786 145.587C66.8715 146.066 67.3678 146.47 67.9657 146.8L68.0622 146.624ZM66.4559 145.524V150.69H66.6559V145.524H66.4559ZM66.5559 150.59H64.7919V150.79H66.5559V150.59ZM69.6699 145.696C70.2859 145.696 70.8378 145.554 71.3227 145.268L71.2211 145.096C70.7701 145.362 70.254 145.496 69.6699 145.496V145.696ZM71.3227 145.268C71.8074 144.982 72.1805 144.584 72.4409 144.076L72.2629 143.984C72.0194 144.46 71.6725 144.83 71.2211 145.096L71.3227 145.268ZM72.4401 144.077C72.7127 143.569 72.8479 142.995 72.8479 142.356H72.6479C72.6479 142.965 72.5191 143.507 72.2638 143.983L72.4401 144.077ZM72.8479 142.356C72.8479 141.717 72.7127 141.143 72.4401 140.635L72.2638 140.729C72.5191 141.205 72.6479 141.747 72.6479 142.356H72.8479ZM72.4409 140.636C72.1805 140.128 71.8074 139.73 71.3227 139.444L71.2211 139.616C71.6725 139.882 72.0194 140.252 72.2629 140.728L72.4409 140.636ZM71.3227 139.444C70.8378 139.158 70.2859 139.016 69.6699 139.016V139.216C70.254 139.216 70.7701 139.35 71.2211 139.616L71.3227 139.444ZM69.6699 139.016C69.054 139.016 68.4965 139.158 68.0001 139.443L68.0998 139.617C68.5634 139.35 69.0859 139.216 69.6699 139.216V139.016ZM67.9991 139.444C67.5149 139.729 67.1362 140.127 66.8638 140.635L67.0401 140.729C67.2957 140.253 67.6489 139.883 68.1007 139.616L67.9991 139.444ZM66.8638 140.635C66.5911 141.143 66.4559 141.717 66.4559 142.356H66.6559C66.6559 141.747 66.7847 141.205 67.0401 140.729L66.8638 140.635ZM66.4559 142.356C66.4559 142.995 66.5911 143.569 66.8638 144.077L67.0401 143.983C66.7847 143.507 66.6559 142.965 66.6559 142.356H66.4559ZM66.8638 144.077C67.1362 144.585 67.5149 144.983 67.9991 145.268L68.1007 145.096C67.6489 144.829 67.2957 144.459 67.0401 143.983L66.8638 144.077ZM68.0001 145.269C68.4965 145.554 69.054 145.696 69.6699 145.696V145.496C69.0859 145.496 68.5634 145.362 68.0998 145.095L68.0001 145.269ZM78.3174 146.568L78.3655 146.48L78.3174 146.568ZM76.5714 144.858L76.4847 144.908L76.5714 144.858ZM76.5714 139.854L76.6581 139.904L76.5714 139.854ZM78.3174 138.144L78.3655 138.232L78.3666 138.231L78.3174 138.144ZM83.3934 138.144L83.3442 138.231L83.3453 138.232L83.3934 138.144ZM85.1394 139.854L85.2261 139.804L85.1394 139.854ZM85.1394 144.858L85.2261 144.908L85.1394 144.858ZM83.3934 146.568L83.4415 146.656L83.3934 146.568ZM83.0694 144.678L82.998 144.608L82.9972 144.609L83.0694 144.678ZM83.0694 140.034L82.9965 140.103L82.998 140.104L83.0694 140.034ZM78.6414 140.034L78.7136 140.103L78.7143 140.102L78.6414 140.034ZM78.6414 144.678L78.5685 144.746L78.5692 144.747L78.6414 144.678ZM80.8554 147.08C79.9222 147.08 79.0931 146.879 78.3655 146.48L78.2693 146.656C79.0297 147.073 79.8926 147.28 80.8554 147.28V147.08ZM78.3655 146.48C77.6375 146.081 77.0689 145.524 76.6581 144.808L76.4847 144.908C76.9139 145.656 77.5093 146.239 78.2693 146.656L78.3655 146.48ZM76.6581 144.808C76.2477 144.093 76.0414 143.276 76.0414 142.356H75.8414C75.8414 143.308 76.055 144.159 76.4847 144.908L76.6581 144.808ZM76.0414 142.356C76.0414 141.436 76.2477 140.619 76.6581 139.904L76.4847 139.804C76.055 140.553 75.8414 141.404 75.8414 142.356H76.0414ZM76.6581 139.904C77.0689 139.188 77.6375 138.631 78.3655 138.232L78.2693 138.056C77.5093 138.473 76.9139 139.056 76.4847 139.804L76.6581 139.904ZM78.3666 138.231C79.094 137.82 79.9227 137.614 80.8554 137.614V137.414C79.8921 137.414 79.0288 137.628 78.2682 138.057L78.3666 138.231ZM80.8554 137.614C81.7881 137.614 82.6168 137.82 83.3442 138.231L83.4426 138.057C82.682 137.628 81.8187 137.414 80.8554 137.414V137.614ZM83.3453 138.232C84.0733 138.631 84.6419 139.188 85.0527 139.904L85.2261 139.804C84.7969 139.056 84.2015 138.473 83.4415 138.056L83.3453 138.232ZM85.0527 139.904C85.463 140.619 85.6694 141.436 85.6694 142.356H85.8694C85.8694 141.404 85.6557 140.553 85.2261 139.804L85.0527 139.904ZM85.6694 142.356C85.6694 143.276 85.463 144.093 85.0527 144.808L85.2261 144.908C85.6557 144.159 85.8694 143.308 85.8694 142.356H85.6694ZM85.0527 144.808C84.6419 145.524 84.0733 146.081 83.3453 146.48L83.4415 146.656C84.2015 146.239 84.7969 145.656 85.2261 144.908L85.0527 144.808ZM83.3453 146.48C82.6177 146.879 81.7886 147.08 80.8554 147.08V147.28C81.8182 147.28 82.6811 147.073 83.4415 146.656L83.3453 146.48ZM80.8554 145.66C81.7911 145.66 82.5564 145.357 83.1416 144.747L82.9972 144.609C82.4544 145.175 81.7437 145.46 80.8554 145.46V145.66ZM83.1408 144.748C83.7382 144.138 84.0334 143.337 84.0334 142.356H83.8334C83.8334 143.295 83.5526 144.042 82.998 144.608L83.1408 144.748ZM84.0334 142.356C84.0334 141.375 83.7382 140.574 83.1408 139.964L82.998 140.104C83.5526 140.67 83.8334 141.417 83.8334 142.356H84.0334ZM83.1423 139.966C82.5572 139.343 81.7917 139.034 80.8554 139.034V139.234C81.7431 139.234 82.4536 139.525 82.9965 140.102L83.1423 139.966ZM80.8554 139.034C79.9191 139.034 79.1536 139.343 78.5685 139.966L78.7143 140.102C79.2572 139.525 79.9677 139.234 80.8554 139.234V139.034ZM78.5692 139.965C77.9842 140.575 77.6954 141.375 77.6954 142.356H77.8954C77.8954 141.417 78.1706 140.669 78.7136 140.103L78.5692 139.965ZM77.6954 142.356C77.6954 143.325 77.9845 144.125 78.5685 144.746L78.7143 144.61C78.1703 144.031 77.8954 143.283 77.8954 142.356H77.6954ZM78.5692 144.747C79.1544 145.357 79.9197 145.66 80.8554 145.66V145.46C79.9671 145.46 79.2564 145.175 78.7136 144.609L78.5692 144.747ZM93.8351 142.122L93.7947 142.031L93.5703 142.13L93.8 142.216L93.8351 142.122ZM94.9871 143.004L94.9053 143.062L94.9074 143.064L94.9871 143.004ZM95.0051 145.74L94.9242 145.681L94.923 145.683L95.0051 145.74ZM93.8351 146.676L93.8745 146.768L93.8763 146.767L93.8351 146.676ZM87.6611 147H87.5611V147.1H87.6611V147ZM87.6611 137.694V137.594H87.5611V137.694H87.6611ZM93.5831 138.018L93.542 138.109L93.5831 138.018ZM94.6991 138.9L94.6175 138.958L94.6188 138.96L94.6991 138.9ZM94.7711 141.366L94.6883 141.31L94.6879 141.311L94.7711 141.366ZM89.4251 139.188V139.088H89.3251V139.188H89.4251ZM89.4251 141.474H89.3251V141.574H89.4251V141.474ZM92.9531 141.168L93.0142 141.247L93.0164 141.245L92.9531 141.168ZM92.9531 139.512L92.8898 139.589L92.9531 139.512ZM93.2411 145.146L93.1771 145.069L93.2411 145.146ZM93.2411 143.274L93.1771 143.351L93.2411 143.274ZM89.4251 142.914V142.814H89.3251V142.914H89.4251ZM89.4251 145.506H89.3251V145.606H89.4251V145.506ZM93.8 142.216C94.2617 142.389 94.6293 142.671 94.9054 143.062L95.0688 142.946C94.7689 142.521 94.3684 142.215 93.8702 142.028L93.8 142.216ZM94.9074 143.064C95.193 143.441 95.3371 143.888 95.3371 144.408H95.5371C95.5371 143.848 95.3811 143.359 95.0668 142.944L94.9074 143.064ZM95.3371 144.408C95.3371 144.879 95.1997 145.302 94.9242 145.681L95.086 145.799C95.3864 145.386 95.5371 144.921 95.5371 144.408H95.3371ZM94.923 145.683C94.6588 146.062 94.2839 146.363 93.7939 146.585L93.8763 146.767C94.3943 146.533 94.7994 146.21 95.0871 145.797L94.923 145.683ZM93.7957 146.584C93.3062 146.794 92.744 146.9 92.1071 146.9V147.1C92.7662 147.1 93.356 146.99 93.8745 146.768L93.7957 146.584ZM92.1071 146.9H87.6611V147.1H92.1071V146.9ZM87.7611 147V137.694H87.5611V147H87.7611ZM87.6611 137.794H91.9451V137.594H87.6611V137.794ZM91.9451 137.794C92.5452 137.794 93.0769 137.9 93.542 138.109L93.6241 137.927C93.1293 137.704 92.5689 137.594 91.9451 137.594V137.794ZM93.542 138.109C94.0083 138.319 94.3653 138.602 94.6175 138.958L94.7806 138.842C94.5048 138.454 94.1178 138.149 93.6241 137.927L93.542 138.109ZM94.6188 138.96C94.8815 139.314 95.0131 139.719 95.0131 140.178H95.2131C95.2131 139.677 95.0687 139.23 94.7794 138.84L94.6188 138.96ZM95.0131 140.178C95.0131 140.617 94.9037 140.992 94.6883 141.31L94.8538 141.422C95.0944 141.068 95.2131 140.651 95.2131 140.178H95.0131ZM94.6879 141.311C94.4839 141.616 94.1879 141.857 93.7947 142.031L93.8754 142.213C94.2983 142.027 94.6263 141.764 94.8543 141.421L94.6879 141.311ZM89.3251 139.188V141.474H89.5251V139.188H89.3251ZM89.4251 141.574H91.9451V141.374H89.4251V141.574ZM91.9451 141.574C92.3701 141.574 92.7291 141.467 93.0142 141.247L92.8919 141.089C92.6491 141.277 92.336 141.374 91.9451 141.374V141.574ZM93.0164 141.245C93.3032 141.011 93.4491 140.707 93.4491 140.34H93.2491C93.2491 140.645 93.131 140.893 92.8898 141.091L93.0164 141.245ZM93.4491 140.34C93.4491 139.973 93.3032 139.669 93.0164 139.435L92.8898 139.589C93.131 139.787 93.2491 140.035 93.2491 140.34H93.4491ZM93.0164 139.435C92.7312 139.201 92.3715 139.088 91.9451 139.088V139.288C92.3347 139.288 92.647 139.391 92.8898 139.589L93.0164 139.435ZM91.9451 139.088H89.4251V139.288H91.9451V139.088ZM92.1071 145.606C92.5925 145.606 92.995 145.481 93.3051 145.223L93.1771 145.069C92.9111 145.291 92.5577 145.406 92.1071 145.406V145.606ZM93.3051 145.223C93.6165 144.963 93.7731 144.623 93.7731 144.21H93.5731C93.5731 144.565 93.4416 144.849 93.1771 145.069L93.3051 145.223ZM93.7731 144.21C93.7731 143.797 93.6165 143.457 93.3051 143.197L93.1771 143.351C93.4416 143.571 93.5731 143.855 93.5731 144.21H93.7731ZM93.3051 143.197C92.995 142.939 92.5925 142.814 92.1071 142.814V143.014C92.5577 143.014 92.9111 143.129 93.1771 143.351L93.3051 143.197ZM92.1071 142.814H89.4251V143.014H92.1071V142.814ZM89.3251 142.914V145.506H89.5251V142.914H89.3251ZM89.4251 145.606H92.1071V145.406H89.4251V145.606ZM97.4169 147H97.3169V147.1H97.4169V147ZM97.4169 137.694V137.594H97.3169V137.694H97.4169ZM99.1809 137.694H99.2809V137.594H99.1809V137.694ZM99.1809 140.43H99.0809V140.53H99.1809V140.43ZM102.925 140.844L102.969 140.754L102.925 140.844ZM104.239 142.014L104.154 142.067L104.155 142.069L104.239 142.014ZM104.239 145.416L104.155 145.362L104.154 145.362L104.239 145.416ZM102.925 146.586L102.969 146.676L102.97 146.675L102.925 146.586ZM102.403 144.966L102.337 144.891L102.336 144.892L102.403 144.966ZM102.403 142.464L102.336 142.538L102.337 142.539L102.403 142.464ZM99.1809 141.978V141.878H99.0809V141.978H99.1809ZM99.1809 145.452H99.0809V145.552H99.1809V145.452ZM97.5169 147V137.694H97.3169V147H97.5169ZM97.4169 137.794H99.1809V137.594H97.4169V137.794ZM99.0809 137.694V140.43H99.2809V137.694H99.0809ZM99.1809 140.53H100.999V140.33H99.1809V140.53ZM100.999 140.53C101.706 140.53 102.333 140.665 102.881 140.934L102.969 140.754C102.389 140.471 101.732 140.33 100.999 140.33V140.53ZM102.881 140.934C103.429 141.202 103.852 141.58 104.154 142.067L104.324 141.961C104.001 141.44 103.549 141.038 102.969 140.754L102.881 140.934ZM104.155 142.069C104.468 142.543 104.625 143.088 104.625 143.706H104.825C104.825 143.052 104.658 142.469 104.322 141.959L104.155 142.069ZM104.625 143.706C104.625 144.324 104.468 144.875 104.155 145.362L104.323 145.47C104.658 144.949 104.825 144.36 104.825 143.706H104.625ZM104.154 145.362C103.853 145.838 103.429 146.216 102.879 146.497L102.97 146.675C103.549 146.38 104.001 145.978 104.323 145.47L104.154 145.362ZM102.881 146.496C102.333 146.765 101.706 146.9 100.999 146.9V147.1C101.732 147.1 102.389 146.959 102.969 146.676L102.881 146.496ZM100.999 146.9H97.4169V147.1H100.999V146.9ZM100.999 145.552C101.595 145.552 102.088 145.384 102.47 145.04L102.336 144.892C101.998 145.196 101.555 145.352 100.999 145.352V145.552ZM102.469 145.041C102.864 144.697 103.061 144.249 103.061 143.706H102.861C102.861 144.195 102.686 144.587 102.337 144.891L102.469 145.041ZM103.061 143.706C103.061 143.174 102.863 142.732 102.469 142.389L102.337 142.539C102.687 142.844 102.861 143.23 102.861 143.706H103.061ZM102.47 142.39C102.088 142.046 101.595 141.878 100.999 141.878V142.078C101.555 142.078 101.998 142.234 102.336 142.538L102.47 142.39ZM100.999 141.878H99.1809V142.078H100.999V141.878ZM99.0809 141.978V145.452H99.2809V141.978H99.0809ZM99.1809 145.552H100.999V145.352H99.1809V145.552ZM115.399 142.842V142.942H115.49L115.499 142.851L115.399 142.842ZM107.713 142.842V142.742H107.601L107.614 142.854L107.713 142.842ZM108.685 144.822L108.751 144.747L108.685 144.822ZM112.357 145.218L112.402 145.307L112.403 145.307L112.357 145.218ZM113.419 144.282L113.435 144.183L113.369 144.173L113.334 144.229L113.419 144.282ZM115.075 144.552L115.167 144.591L115.217 144.474L115.091 144.453L115.075 144.552ZM113.329 146.496L113.28 146.409L113.279 146.409L113.329 146.496ZM108.199 146.568L108.149 146.655L108.15 146.655L108.199 146.568ZM106.489 144.84L106.402 144.889L106.489 144.84ZM106.489 139.854L106.576 139.903L106.489 139.854ZM108.181 138.144L108.23 138.231L108.231 138.23L108.181 138.144ZM113.095 138.144L113.045 138.23L113.046 138.231L113.095 138.144ZM114.805 139.854L114.718 139.903L114.718 139.903L114.805 139.854ZM108.811 139.71L108.748 139.632L108.747 139.633L108.811 139.71ZM107.803 141.402L107.706 141.379L107.676 141.502H107.803V141.402ZM113.491 141.402V141.502H113.616L113.589 141.38L113.491 141.402ZM112.483 139.728L112.418 139.804L112.42 139.806L112.483 139.728ZM115.317 142.284C115.317 142.523 115.311 142.705 115.299 142.833L115.499 142.851C115.511 142.715 115.517 142.525 115.517 142.284H115.317ZM115.399 142.742H107.713V142.942H115.399V142.742ZM107.614 142.854C107.712 143.703 108.046 144.386 108.618 144.897L108.751 144.747C108.22 144.274 107.906 143.637 107.812 142.83L107.614 142.854ZM108.618 144.897C109.191 145.407 109.918 145.66 110.791 145.66V145.46C109.959 145.46 109.282 145.221 108.751 144.747L108.618 144.897ZM110.791 145.66C111.392 145.66 111.93 145.543 112.402 145.307L112.312 145.129C111.872 145.349 111.366 145.46 110.791 145.46V145.66ZM112.403 145.307C112.884 145.06 113.253 144.737 113.504 144.335L113.334 144.229C113.105 144.595 112.766 144.896 112.311 145.129L112.403 145.307ZM113.403 144.381L115.059 144.651L115.091 144.453L113.435 144.183L113.403 144.381ZM114.983 144.513C114.632 145.332 114.065 145.964 113.28 146.409L113.378 146.583C114.201 146.116 114.798 145.452 115.167 144.591L114.983 144.513ZM113.279 146.409C112.503 146.856 111.639 147.08 110.683 147.08V147.28C111.671 147.28 112.571 147.048 113.379 146.583L113.279 146.409ZM110.683 147.08C109.774 147.08 108.963 146.88 108.248 146.481L108.15 146.655C108.899 147.072 109.744 147.28 110.683 147.28V147.08ZM108.249 146.481C107.532 146.07 106.975 145.507 106.576 144.791L106.402 144.889C106.818 145.637 107.402 146.226 108.149 146.655L108.249 146.481ZM106.576 144.791C106.177 144.076 105.977 143.265 105.977 142.356H105.777C105.777 143.295 105.984 144.14 106.402 144.889L106.576 144.791ZM105.977 142.356C105.977 141.435 106.178 140.618 106.576 139.903L106.402 139.805C105.984 140.554 105.777 141.405 105.777 142.356H105.977ZM106.576 139.903C106.975 139.186 107.526 138.63 108.23 138.231L108.132 138.057C107.395 138.474 106.818 139.058 106.402 139.805L106.576 139.903ZM108.231 138.23C108.934 137.82 109.739 137.614 110.647 137.614V137.414C109.707 137.414 108.867 137.628 108.131 138.058L108.231 138.23ZM110.647 137.614C111.543 137.614 112.341 137.82 113.045 138.23L113.145 138.058C112.409 137.628 111.575 137.414 110.647 137.414V137.614ZM113.046 138.231C113.762 138.63 114.319 139.187 114.718 139.903L114.892 139.805C114.475 139.057 113.892 138.474 113.144 138.057L113.046 138.231ZM114.718 139.903C115.117 140.607 115.317 141.4 115.317 142.284H115.517C115.517 141.368 115.309 140.541 114.892 139.805L114.718 139.903ZM110.647 138.98C109.918 138.98 109.283 139.197 108.748 139.632L108.874 139.788C109.371 139.383 109.96 139.18 110.647 139.18V138.98ZM108.747 139.633C108.224 140.069 107.878 140.652 107.706 141.379L107.9 141.425C108.064 140.736 108.389 140.191 108.875 139.787L108.747 139.633ZM107.803 141.502H113.491V141.302H107.803V141.502ZM113.589 141.38C113.428 140.664 113.081 140.086 112.546 139.65L112.42 139.806C112.917 140.21 113.242 140.748 113.393 141.424L113.589 141.38ZM112.548 139.652C112.024 139.203 111.389 138.98 110.647 138.98V139.18C111.345 139.18 111.934 139.389 112.418 139.804L112.548 139.652Z" fill="white" mask="url(#path-2-outside-1_923_5617)"/>
<g filter="url(#filter1_d_923_5617)">
<path d="M61.8463 50.0982C43.3208 63.1971 34.3387 96.4902 39.3919 105.223L39.9527 105.769C42.7595 109.589 52.3026 109.043 66.3366 106.314C66.3366 106.314 68.0207 47.9151 66.3366 47.915C64.6525 47.915 64.6525 49.0066 62.9685 49.5524C61.2844 50.0982 61.8463 50.0982 61.8463 50.0982Z" fill="#E52E6A"/>
<path d="M85.9876 50.1179C103.865 63.3348 112.533 96.9279 107.657 105.739L107.116 106.29C104.407 110.145 95.1975 109.594 81.6543 106.841C81.6543 106.841 80.0291 47.9151 81.6543 47.915C83.2795 47.915 83.2795 49.0165 84.9046 49.5672C86.5298 50.1179 85.9876 50.1179 85.9876 50.1179Z" fill="#E52E6A"/>
<path d="M69.1434 37C70.2661 40.2747 70.2661 44.641 70.2661 48.4616C70.2661 52.2821 69.1434 54.4652 66.8979 57.1942V59.9231C69.1434 57.1942 70.8275 55.5568 73.0729 55.5568C75.3184 55.5568 78.1252 56.6484 80.932 59.9231V57.1942C79.3974 53.7839 77.6744 53.9195 77.0024 48.4616C76.3305 43.0037 76.9061 43.1812 77.5638 37H69.1434Z" fill="#E52E6A"/>
</g>
<defs>
<filter id="filter0_d_923_5617" x="0" y="0" width="149" height="177" filterUnits="userSpaceOnUse" color-interpolation-filters="sRGB">
<feFlood flood-opacity="0" result="BackgroundImageFix"/>
<feColorMatrix in="SourceAlpha" type="matrix" values="0 0 0 0 0 0 0 0 0 0 0 0 0 0 0 0 0 0 127 0" result="hardAlpha"/>
<feOffset dy="4"/>
<feGaussianBlur stdDeviation="5"/>
<feComposite in2="hardAlpha" operator="out"/>
<feColorMatrix type="matrix" values="0 0 0 0 0 0 0 0 0 0 0 0 0 0 0 0 0 0 0.25 0"/>
<feBlend mode="normal" in2="BackgroundImageFix" result="effect1_dropShadow_923_5617"/>
<feBlend mode="normal" in="SourceGraphic" in2="effect1_dropShadow_923_5617" result="shape"/>
</filter>
<filter id="filter1_d_923_5617" x="27.5588" y="30.7353" width="91.8824" height="92.9263" filterUnits="userSpaceOnUse" color-interpolation-filters="sRGB">
<feFlood flood-opacity="0" result="BackgroundImageFix"/>
<feColorMatrix in="SourceAlpha" type="matrix" values="0 0 0 0 0 0 0 0 0 0 0 0 0 0 0 0 0 0 127 0" result="hardAlpha"/>
<feOffset dy="4.17647"/>
<feGaussianBlur stdDeviation="5.22059"/>
<feComposite in2="hardAlpha" operator="out"/>
<feColorMatrix type="matrix" values="0 0 0 0 0 0 0 0 0 0 0 0 0 0 0 0 0 0 0.25 0"/>
<feBlend mode="normal" in2="BackgroundImageFix" result="effect1_dropShadow_923_5617"/>
<feBlend mode="normal" in="SourceGraphic" in2="effect1_dropShadow_923_5617" result="shape"/>
</filter>
</defs>
</svg>
