<svg width="149" height="177" viewBox="0 0 149 177" fill="none" xmlns="http://www.w3.org/2000/svg">
<g filter="url(#filter0_d_923_5618)">
<rect x="11" y="7" width="127" height="155" rx="11" fill="#2BB4D6" fill-opacity="0.65" shape-rendering="crispEdges"/>
<rect x="11" y="7" width="127" height="155" rx="11" stroke="#2BB4D6" stroke-opacity="0.65" stroke-width="2" shape-rendering="crispEdges"/>
</g>
<mask id="path-2-outside-1_923_5618" maskUnits="userSpaceOnUse" x="32" y="137" width="84" height="13" fill="black">
<rect fill="white" x="32" y="137" width="84" height="13"/>
<path d="M37.292 147H35.528V139.314H32.306V137.694H40.514V139.314H37.292V147ZM48.2218 142.122C48.7018 142.302 49.0858 142.596 49.3738 143.004C49.6738 143.4 49.8238 143.868 49.8238 144.408C49.8238 144.9 49.6798 145.344 49.3918 145.74C49.1158 146.136 48.7258 146.448 48.2218 146.676C47.7178 146.892 47.1418 147 46.4938 147H42.0478V137.694H46.3318C46.9438 137.694 47.4898 137.802 47.9698 138.018C48.4498 138.234 48.8218 138.528 49.0858 138.9C49.3618 139.272 49.4998 139.698 49.4998 140.178C49.4998 140.634 49.3858 141.03 49.1578 141.366C48.9418 141.69 48.6298 141.942 48.2218 142.122ZM43.8118 139.188V141.474H46.3318C46.7398 141.474 47.0758 141.372 47.3398 141.168C47.6038 140.952 47.7358 140.676 47.7358 140.34C47.7358 140.004 47.6038 139.728 47.3398 139.512C47.0758 139.296 46.7398 139.188 46.3318 139.188H43.8118ZM46.4938 145.506C46.9618 145.506 47.3398 145.386 47.6278 145.146C47.9158 144.906 48.0598 144.594 48.0598 144.21C48.0598 143.826 47.9158 143.514 47.6278 143.274C47.3398 143.034 46.9618 142.914 46.4938 142.914H43.8118V145.506H46.4938ZM56.1777 147.18C55.2297 147.18 54.3837 146.976 53.6397 146.568C52.8957 146.16 52.3137 145.59 51.8937 144.858C51.4737 144.126 51.2637 143.292 51.2637 142.356C51.2637 141.42 51.4737 140.586 51.8937 139.854C52.3137 139.122 52.8957 138.552 53.6397 138.144C54.3837 137.724 55.2297 137.514 56.1777 137.514C57.1257 137.514 57.9717 137.724 58.7157 138.144C59.4597 138.552 60.0417 139.122 60.4617 139.854C60.8817 140.586 61.0917 141.42 61.0917 142.356C61.0917 143.292 60.8817 144.126 60.4617 144.858C60.0417 145.59 59.4597 146.16 58.7157 146.568C57.9717 146.976 57.1257 147.18 56.1777 147.18ZM56.1777 145.56C57.0897 145.56 57.8277 145.266 58.3917 144.678C58.9677 144.09 59.2557 143.316 59.2557 142.356C59.2557 141.396 58.9677 140.622 58.3917 140.034C57.8277 139.434 57.0897 139.134 56.1777 139.134C55.2657 139.134 54.5277 139.434 53.9637 140.034C53.3997 140.622 53.1177 141.396 53.1177 142.356C53.1177 143.304 53.3997 144.078 53.9637 144.678C54.5277 145.266 55.2657 145.56 56.1777 145.56ZM70.1833 137.694V147H68.4193V143.832H66.5653L64.4773 147H62.4433L64.7293 143.58C64.1053 143.352 63.6073 142.992 63.2353 142.5C62.8753 142.008 62.6953 141.432 62.6953 140.772C62.6953 140.184 62.8453 139.656 63.1453 139.188C63.4453 138.72 63.8653 138.354 64.4053 138.09C64.9453 137.826 65.5573 137.694 66.2413 137.694H70.1833ZM68.4193 142.284V139.26H66.2413C65.7133 139.26 65.2873 139.398 64.9633 139.674C64.6393 139.95 64.4773 140.316 64.4773 140.772C64.4773 141.228 64.6393 141.594 64.9633 141.87C65.2873 142.146 65.7133 142.284 66.2413 142.284H68.4193ZM86.3004 149.754H84.5364V147H76.9404V137.694H78.7044V145.38H82.9524V137.694H84.7164V145.38H86.3004V149.754ZM96.663 142.284C96.663 142.524 96.657 142.71 96.645 142.842H88.959C89.055 143.67 89.379 144.33 89.931 144.822C90.483 145.314 91.185 145.56 92.037 145.56C92.625 145.56 93.147 145.446 93.603 145.218C94.071 144.978 94.425 144.666 94.665 144.282L96.321 144.552C95.961 145.392 95.379 146.04 94.575 146.496C93.783 146.952 92.901 147.18 91.929 147.18C91.005 147.18 90.177 146.976 89.445 146.568C88.713 146.148 88.143 145.572 87.735 144.84C87.327 144.108 87.123 143.28 87.123 142.356C87.123 141.42 87.327 140.586 87.735 139.854C88.143 139.122 88.707 138.552 89.427 138.144C90.147 137.724 90.969 137.514 91.893 137.514C92.805 137.514 93.621 137.724 94.341 138.144C95.073 138.552 95.643 139.122 96.051 139.854C96.459 140.574 96.663 141.384 96.663 142.284ZM91.893 139.08C91.185 139.08 90.573 139.29 90.057 139.71C89.553 140.13 89.217 140.694 89.049 141.402H94.737C94.581 140.706 94.245 140.148 93.729 139.728C93.225 139.296 92.613 139.08 91.893 139.08ZM99.4025 137.694H105.937V147H104.173V139.314H101.041L100.771 143.706C100.711 144.798 100.429 145.638 99.9245 146.226C99.4205 146.802 98.7365 147.09 97.8725 147.09C97.6445 147.09 97.3925 147.072 97.1165 147.036L96.9365 145.344C97.0925 145.356 97.3265 145.362 97.6385 145.362C98.1185 145.362 98.4605 145.242 98.6645 145.002C98.8685 144.762 98.9885 144.342 99.0245 143.742L99.4025 137.694ZM108.37 147V137.694H110.134V140.43H111.952C112.672 140.43 113.314 140.568 113.878 140.844C114.442 141.12 114.88 141.51 115.192 142.014C115.516 142.506 115.678 143.07 115.678 143.706C115.678 144.342 115.516 144.912 115.192 145.416C114.88 145.908 114.442 146.298 113.878 146.586C113.314 146.862 112.672 147 111.952 147H108.37ZM111.952 145.452C112.528 145.452 112.996 145.29 113.356 144.966C113.728 144.642 113.914 144.222 113.914 143.706C113.914 143.202 113.728 142.788 113.356 142.464C112.996 142.14 112.528 141.978 111.952 141.978H110.134V145.452H111.952Z"/>
</mask>
<path d="M37.292 147H35.528V139.314H32.306V137.694H40.514V139.314H37.292V147ZM48.2218 142.122C48.7018 142.302 49.0858 142.596 49.3738 143.004C49.6738 143.4 49.8238 143.868 49.8238 144.408C49.8238 144.9 49.6798 145.344 49.3918 145.74C49.1158 146.136 48.7258 146.448 48.2218 146.676C47.7178 146.892 47.1418 147 46.4938 147H42.0478V137.694H46.3318C46.9438 137.694 47.4898 137.802 47.9698 138.018C48.4498 138.234 48.8218 138.528 49.0858 138.9C49.3618 139.272 49.4998 139.698 49.4998 140.178C49.4998 140.634 49.3858 141.03 49.1578 141.366C48.9418 141.69 48.6298 141.942 48.2218 142.122ZM43.8118 139.188V141.474H46.3318C46.7398 141.474 47.0758 141.372 47.3398 141.168C47.6038 140.952 47.7358 140.676 47.7358 140.34C47.7358 140.004 47.6038 139.728 47.3398 139.512C47.0758 139.296 46.7398 139.188 46.3318 139.188H43.8118ZM46.4938 145.506C46.9618 145.506 47.3398 145.386 47.6278 145.146C47.9158 144.906 48.0598 144.594 48.0598 144.21C48.0598 143.826 47.9158 143.514 47.6278 143.274C47.3398 143.034 46.9618 142.914 46.4938 142.914H43.8118V145.506H46.4938ZM56.1777 147.18C55.2297 147.18 54.3837 146.976 53.6397 146.568C52.8957 146.16 52.3137 145.59 51.8937 144.858C51.4737 144.126 51.2637 143.292 51.2637 142.356C51.2637 141.42 51.4737 140.586 51.8937 139.854C52.3137 139.122 52.8957 138.552 53.6397 138.144C54.3837 137.724 55.2297 137.514 56.1777 137.514C57.1257 137.514 57.9717 137.724 58.7157 138.144C59.4597 138.552 60.0417 139.122 60.4617 139.854C60.8817 140.586 61.0917 141.42 61.0917 142.356C61.0917 143.292 60.8817 144.126 60.4617 144.858C60.0417 145.59 59.4597 146.16 58.7157 146.568C57.9717 146.976 57.1257 147.18 56.1777 147.18ZM56.1777 145.56C57.0897 145.56 57.8277 145.266 58.3917 144.678C58.9677 144.09 59.2557 143.316 59.2557 142.356C59.2557 141.396 58.9677 140.622 58.3917 140.034C57.8277 139.434 57.0897 139.134 56.1777 139.134C55.2657 139.134 54.5277 139.434 53.9637 140.034C53.3997 140.622 53.1177 141.396 53.1177 142.356C53.1177 143.304 53.3997 144.078 53.9637 144.678C54.5277 145.266 55.2657 145.56 56.1777 145.56ZM70.1833 137.694V147H68.4193V143.832H66.5653L64.4773 147H62.4433L64.7293 143.58C64.1053 143.352 63.6073 142.992 63.2353 142.5C62.8753 142.008 62.6953 141.432 62.6953 140.772C62.6953 140.184 62.8453 139.656 63.1453 139.188C63.4453 138.72 63.8653 138.354 64.4053 138.09C64.9453 137.826 65.5573 137.694 66.2413 137.694H70.1833ZM68.4193 142.284V139.26H66.2413C65.7133 139.26 65.2873 139.398 64.9633 139.674C64.6393 139.95 64.4773 140.316 64.4773 140.772C64.4773 141.228 64.6393 141.594 64.9633 141.87C65.2873 142.146 65.7133 142.284 66.2413 142.284H68.4193ZM86.3004 149.754H84.5364V147H76.9404V137.694H78.7044V145.38H82.9524V137.694H84.7164V145.38H86.3004V149.754ZM96.663 142.284C96.663 142.524 96.657 142.71 96.645 142.842H88.959C89.055 143.67 89.379 144.33 89.931 144.822C90.483 145.314 91.185 145.56 92.037 145.56C92.625 145.56 93.147 145.446 93.603 145.218C94.071 144.978 94.425 144.666 94.665 144.282L96.321 144.552C95.961 145.392 95.379 146.04 94.575 146.496C93.783 146.952 92.901 147.18 91.929 147.18C91.005 147.18 90.177 146.976 89.445 146.568C88.713 146.148 88.143 145.572 87.735 144.84C87.327 144.108 87.123 143.28 87.123 142.356C87.123 141.42 87.327 140.586 87.735 139.854C88.143 139.122 88.707 138.552 89.427 138.144C90.147 137.724 90.969 137.514 91.893 137.514C92.805 137.514 93.621 137.724 94.341 138.144C95.073 138.552 95.643 139.122 96.051 139.854C96.459 140.574 96.663 141.384 96.663 142.284ZM91.893 139.08C91.185 139.08 90.573 139.29 90.057 139.71C89.553 140.13 89.217 140.694 89.049 141.402H94.737C94.581 140.706 94.245 140.148 93.729 139.728C93.225 139.296 92.613 139.08 91.893 139.08ZM99.4025 137.694H105.937V147H104.173V139.314H101.041L100.771 143.706C100.711 144.798 100.429 145.638 99.9245 146.226C99.4205 146.802 98.7365 147.09 97.8725 147.09C97.6445 147.09 97.3925 147.072 97.1165 147.036L96.9365 145.344C97.0925 145.356 97.3265 145.362 97.6385 145.362C98.1185 145.362 98.4605 145.242 98.6645 145.002C98.8685 144.762 98.9885 144.342 99.0245 143.742L99.4025 137.694ZM108.37 147V137.694H110.134V140.43H111.952C112.672 140.43 113.314 140.568 113.878 140.844C114.442 141.12 114.88 141.51 115.192 142.014C115.516 142.506 115.678 143.07 115.678 143.706C115.678 144.342 115.516 144.912 115.192 145.416C114.88 145.908 114.442 146.298 113.878 146.586C113.314 146.862 112.672 147 111.952 147H108.37ZM111.952 145.452C112.528 145.452 112.996 145.29 113.356 144.966C113.728 144.642 113.914 144.222 113.914 143.706C113.914 143.202 113.728 142.788 113.356 142.464C112.996 142.14 112.528 141.978 111.952 141.978H110.134V145.452H111.952Z" fill="white"/>
<path d="M37.292 147V147.1H37.392V147H37.292ZM35.528 147H35.428V147.1H35.528V147ZM35.528 139.314H35.628V139.214H35.528V139.314ZM32.306 139.314H32.206V139.414H32.306V139.314ZM32.306 137.694V137.594H32.206V137.694H32.306ZM40.514 137.694H40.614V137.594H40.514V137.694ZM40.514 139.314V139.414H40.614V139.314H40.514ZM37.292 139.314V139.214H37.192V139.314H37.292ZM37.292 146.9H35.528V147.1H37.292V146.9ZM35.628 147V139.314H35.428V147H35.628ZM35.528 139.214H32.306V139.414H35.528V139.214ZM32.406 139.314V137.694H32.206V139.314H32.406ZM32.306 137.794H40.514V137.594H32.306V137.794ZM40.414 137.694V139.314H40.614V137.694H40.414ZM40.514 139.214H37.292V139.414H40.514V139.214ZM37.192 139.314V147H37.392V139.314H37.192ZM48.2218 142.122L48.1814 142.031L47.957 142.13L48.1867 142.216L48.2218 142.122ZM49.3738 143.004L49.2921 143.062L49.2941 143.064L49.3738 143.004ZM49.3918 145.74L49.3109 145.681L49.3098 145.683L49.3918 145.74ZM48.2218 146.676L48.2612 146.768L48.263 146.767L48.2218 146.676ZM42.0478 147H41.9478V147.1H42.0478V147ZM42.0478 137.694V137.594H41.9478V137.694H42.0478ZM47.9698 138.018L47.9288 138.109L47.9698 138.018ZM49.0858 138.9L49.0042 138.958L49.0055 138.96L49.0858 138.9ZM49.1578 141.366L49.075 141.31L49.0746 141.311L49.1578 141.366ZM43.8118 139.188V139.088H43.7118V139.188H43.8118ZM43.8118 141.474H43.7118V141.574H43.8118V141.474ZM47.3398 141.168L47.401 141.247L47.4031 141.245L47.3398 141.168ZM47.3398 139.512L47.2765 139.589L47.3398 139.512ZM47.6278 145.146L47.5638 145.069L47.6278 145.146ZM47.6278 143.274L47.5638 143.351L47.6278 143.274ZM43.8118 142.914V142.814H43.7118V142.914H43.8118ZM43.8118 145.506H43.7118V145.606H43.8118V145.506ZM48.1867 142.216C48.6484 142.389 49.016 142.671 49.2921 143.062L49.4555 142.946C49.1556 142.521 48.7552 142.215 48.2569 142.028L48.1867 142.216ZM49.2941 143.064C49.5798 143.441 49.7238 143.888 49.7238 144.408H49.9238C49.9238 143.848 49.7678 143.359 49.4535 142.944L49.2941 143.064ZM49.7238 144.408C49.7238 144.879 49.5864 145.302 49.3109 145.681L49.4727 145.799C49.7732 145.386 49.9238 144.921 49.9238 144.408H49.7238ZM49.3098 145.683C49.0455 146.062 48.6706 146.363 48.1806 146.585L48.263 146.767C48.781 146.533 49.1861 146.21 49.4738 145.797L49.3098 145.683ZM48.1824 146.584C47.6929 146.794 47.1307 146.9 46.4938 146.9V147.1C47.1529 147.1 47.7427 146.99 48.2612 146.768L48.1824 146.584ZM46.4938 146.9H42.0478V147.1H46.4938V146.9ZM42.1478 147V137.694H41.9478V147H42.1478ZM42.0478 137.794H46.3318V137.594H42.0478V137.794ZM46.3318 137.794C46.9319 137.794 47.4636 137.9 47.9288 138.109L48.0108 137.927C47.516 137.704 46.9557 137.594 46.3318 137.594V137.794ZM47.9288 138.109C48.3951 138.319 48.752 138.602 49.0042 138.958L49.1673 138.842C48.8916 138.454 48.5045 138.149 48.0108 137.927L47.9288 138.109ZM49.0055 138.96C49.2682 139.314 49.3998 139.719 49.3998 140.178H49.5998C49.5998 139.677 49.4554 139.23 49.1661 138.84L49.0055 138.96ZM49.3998 140.178C49.3998 140.617 49.2905 140.992 49.0751 141.31L49.2405 141.422C49.4811 141.068 49.5998 140.651 49.5998 140.178H49.3998ZM49.0746 141.311C48.8706 141.616 48.5746 141.857 48.1814 142.031L48.2622 142.213C48.685 142.027 49.013 141.764 49.241 141.421L49.0746 141.311ZM43.7118 139.188V141.474H43.9118V139.188H43.7118ZM43.8118 141.574H46.3318V141.374H43.8118V141.574ZM46.3318 141.574C46.7569 141.574 47.1158 141.467 47.4009 141.247L47.2787 141.089C47.0358 141.277 46.7227 141.374 46.3318 141.374V141.574ZM47.4031 141.245C47.6899 141.011 47.8358 140.707 47.8358 140.34H47.6358C47.6358 140.645 47.5177 140.893 47.2765 141.091L47.4031 141.245ZM47.8358 140.34C47.8358 139.973 47.6899 139.669 47.4031 139.435L47.2765 139.589C47.5177 139.787 47.6358 140.035 47.6358 140.34H47.8358ZM47.4031 139.435C47.1179 139.201 46.7582 139.088 46.3318 139.088V139.288C46.7214 139.288 47.0337 139.391 47.2765 139.589L47.4031 139.435ZM46.3318 139.088H43.8118V139.288H46.3318V139.088ZM46.4938 145.606C46.9792 145.606 47.3817 145.481 47.6918 145.223L47.5638 145.069C47.2979 145.291 46.9444 145.406 46.4938 145.406V145.606ZM47.6918 145.223C48.0032 144.963 48.1598 144.623 48.1598 144.21H47.9598C47.9598 144.565 47.8283 144.849 47.5638 145.069L47.6918 145.223ZM48.1598 144.21C48.1598 143.797 48.0032 143.457 47.6918 143.197L47.5638 143.351C47.8283 143.571 47.9598 143.855 47.9598 144.21H48.1598ZM47.6918 143.197C47.3817 142.939 46.9792 142.814 46.4938 142.814V143.014C46.9444 143.014 47.2979 143.129 47.5638 143.351L47.6918 143.197ZM46.4938 142.814H43.8118V143.014H46.4938V142.814ZM43.7118 142.914V145.506H43.9118V142.914H43.7118ZM43.8118 145.606H46.4938V145.406H43.8118V145.606ZM53.6397 146.568L53.6877 146.48L53.6397 146.568ZM51.8937 144.858L51.8069 144.908L51.8937 144.858ZM51.8937 139.854L51.9804 139.904L51.8937 139.854ZM53.6397 138.144L53.6877 138.232L53.6888 138.231L53.6397 138.144ZM58.7157 138.144L58.6665 138.231L58.6676 138.232L58.7157 138.144ZM60.4617 139.854L60.5484 139.804L60.4617 139.854ZM60.4617 144.858L60.5484 144.908L60.4617 144.858ZM58.7157 146.568L58.7637 146.656L58.7157 146.568ZM58.3917 144.678L58.3202 144.608L58.3195 144.609L58.3917 144.678ZM58.3917 140.034L58.3188 140.103L58.3202 140.104L58.3917 140.034ZM53.9637 140.034L54.0358 140.103L54.0365 140.102L53.9637 140.034ZM53.9637 144.678L53.8908 144.746L53.8915 144.747L53.9637 144.678ZM56.1777 147.08C55.2445 147.08 54.4153 146.879 53.6877 146.48L53.5916 146.656C54.352 147.073 55.2149 147.28 56.1777 147.28V147.08ZM53.6877 146.48C52.9598 146.081 52.3912 145.524 51.9804 144.808L51.8069 144.908C52.2361 145.656 52.8315 146.239 53.5916 146.656L53.6877 146.48ZM51.9804 144.808C51.57 144.093 51.3637 143.276 51.3637 142.356H51.1637C51.1637 143.308 51.3773 144.159 51.8069 144.908L51.9804 144.808ZM51.3637 142.356C51.3637 141.436 51.57 140.619 51.9804 139.904L51.8069 139.804C51.3773 140.553 51.1637 141.404 51.1637 142.356H51.3637ZM51.9804 139.904C52.3912 139.188 52.9598 138.631 53.6877 138.232L53.5916 138.056C52.8315 138.473 52.2361 139.056 51.8069 139.804L51.9804 139.904ZM53.6888 138.231C54.4162 137.82 55.245 137.614 56.1777 137.614V137.414C55.2144 137.414 54.3511 137.628 53.5905 138.057L53.6888 138.231ZM56.1777 137.614C57.1104 137.614 57.9391 137.82 58.6665 138.231L58.7648 138.057C58.0042 137.628 57.141 137.414 56.1777 137.414V137.614ZM58.6676 138.232C59.3955 138.631 59.9641 139.188 60.3749 139.904L60.5484 139.804C60.1192 139.056 59.5238 138.473 58.7637 138.056L58.6676 138.232ZM60.3749 139.904C60.7853 140.619 60.9917 141.436 60.9917 142.356H61.1917C61.1917 141.404 60.978 140.553 60.5484 139.804L60.3749 139.904ZM60.9917 142.356C60.9917 143.276 60.7853 144.093 60.3749 144.808L60.5484 144.908C60.978 144.159 61.1917 143.308 61.1917 142.356H60.9917ZM60.3749 144.808C59.9641 145.524 59.3955 146.081 58.6676 146.48L58.7637 146.656C59.5238 146.239 60.1192 145.656 60.5484 144.908L60.3749 144.808ZM58.6676 146.48C57.94 146.879 57.1109 147.08 56.1777 147.08V147.28C57.1405 147.28 58.0033 147.073 58.7637 146.656L58.6676 146.48ZM56.1777 145.66C57.1133 145.66 57.8786 145.357 58.4638 144.747L58.3195 144.609C57.7767 145.175 57.066 145.46 56.1777 145.46V145.66ZM58.4631 144.748C59.0604 144.138 59.3557 143.337 59.3557 142.356H59.1557C59.1557 143.295 58.8749 144.042 58.3202 144.608L58.4631 144.748ZM59.3557 142.356C59.3557 141.375 59.0604 140.574 58.4631 139.964L58.3202 140.104C58.8749 140.67 59.1557 141.417 59.1557 142.356H59.3557ZM58.4645 139.966C57.8795 139.343 57.114 139.034 56.1777 139.034V139.234C57.0653 139.234 57.7758 139.525 58.3188 140.102L58.4645 139.966ZM56.1777 139.034C55.2413 139.034 54.4758 139.343 53.8908 139.966L54.0365 140.102C54.5795 139.525 55.29 139.234 56.1777 139.234V139.034ZM53.8915 139.965C53.3065 140.575 53.0177 141.375 53.0177 142.356H53.2177C53.2177 141.417 53.4928 140.669 54.0358 140.103L53.8915 139.965ZM53.0177 142.356C53.0177 143.325 53.3067 144.125 53.8908 144.746L54.0365 144.61C53.4926 144.031 53.2177 143.283 53.2177 142.356H53.0177ZM53.8915 144.747C54.4767 145.357 55.242 145.66 56.1777 145.66V145.46C55.2893 145.46 54.5786 145.175 54.0358 144.609L53.8915 144.747ZM70.1833 137.694H70.2833V137.594H70.1833V137.694ZM70.1833 147V147.1H70.2833V147H70.1833ZM68.4193 147H68.3193V147.1H68.4193V147ZM68.4193 143.832H68.5193V143.732H68.4193V143.832ZM66.5653 143.832V143.732H66.5115L66.4818 143.777L66.5653 143.832ZM64.4773 147V147.1H64.5312L64.5608 147.055L64.4773 147ZM62.4433 147L62.3602 146.944L62.2562 147.1H62.4433V147ZM64.7293 143.58L64.8125 143.636L64.8832 143.53L64.7637 143.486L64.7293 143.58ZM63.2353 142.5L63.1546 142.559L63.1556 142.56L63.2353 142.5ZM63.1453 139.188L63.2295 139.242L63.1453 139.188ZM64.4053 138.09L64.3614 138L64.4053 138.09ZM68.4193 142.284V142.384H68.5193V142.284H68.4193ZM68.4193 139.26H68.5193V139.16H68.4193V139.26ZM64.9633 139.674L64.8985 139.598L64.9633 139.674ZM64.9633 141.87L64.8985 141.946L64.9633 141.87ZM70.0833 137.694V147H70.2833V137.694H70.0833ZM70.1833 146.9H68.4193V147.1H70.1833V146.9ZM68.5193 147V143.832H68.3193V147H68.5193ZM68.4193 143.732H66.5653V143.932H68.4193V143.732ZM66.4818 143.777L64.3938 146.945L64.5608 147.055L66.6488 143.887L66.4818 143.777ZM64.4773 146.9H62.4433V147.1H64.4773V146.9ZM62.5265 147.056L64.8125 143.636L64.6462 143.524L62.3602 146.944L62.5265 147.056ZM64.7637 143.486C64.1563 143.264 63.6746 142.915 63.3151 142.44L63.1556 142.56C63.5401 143.069 64.0544 143.44 64.695 143.674L64.7637 143.486ZM63.316 142.441C62.9696 141.968 62.7953 141.413 62.7953 140.772H62.5953C62.5953 141.451 62.781 142.048 63.1546 142.559L63.316 142.441ZM62.7953 140.772C62.7953 140.202 62.9405 139.693 63.2295 139.242L63.0612 139.134C62.7502 139.619 62.5953 140.166 62.5953 140.772H62.7953ZM63.2295 139.242C63.5188 138.791 63.9243 138.436 64.4493 138.18L64.3614 138C63.8064 138.272 63.3718 138.649 63.0612 139.134L63.2295 139.242ZM64.4493 138.18C64.9738 137.923 65.5705 137.794 66.2413 137.794V137.594C65.5442 137.594 64.9169 137.729 64.3614 138L64.4493 138.18ZM66.2413 137.794H70.1833V137.594H66.2413V137.794ZM68.5193 142.284V139.26H68.3193V142.284H68.5193ZM68.4193 139.16H66.2413V139.36H68.4193V139.16ZM66.2413 139.16C65.6955 139.16 65.2446 139.303 64.8985 139.598L65.0282 139.75C65.3301 139.493 65.7312 139.36 66.2413 139.36V139.16ZM64.8985 139.598C64.5504 139.894 64.3773 140.289 64.3773 140.772H64.5773C64.5773 140.343 64.7282 140.006 65.0282 139.75L64.8985 139.598ZM64.3773 140.772C64.3773 141.255 64.5504 141.65 64.8985 141.946L65.0282 141.794C64.7282 141.538 64.5773 141.201 64.5773 140.772H64.3773ZM64.8985 141.946C65.2446 142.241 65.6955 142.384 66.2413 142.384V142.184C65.7312 142.184 65.3301 142.051 65.0282 141.794L64.8985 141.946ZM66.2413 142.384H68.4193V142.184H66.2413V142.384ZM86.3004 149.754V149.854H86.4004V149.754H86.3004ZM84.5364 149.754H84.4364V149.854H84.5364V149.754ZM84.5364 147H84.6364V146.9H84.5364V147ZM76.9404 147H76.8404V147.1H76.9404V147ZM76.9404 137.694V137.594H76.8404V137.694H76.9404ZM78.7044 137.694H78.8044V137.594H78.7044V137.694ZM78.7044 145.38H78.6044V145.48H78.7044V145.38ZM82.9524 145.38V145.48H83.0524V145.38H82.9524ZM82.9524 137.694V137.594H82.8524V137.694H82.9524ZM84.7164 137.694H84.8164V137.594H84.7164V137.694ZM84.7164 145.38H84.6164V145.48H84.7164V145.38ZM86.3004 145.38H86.4004V145.28H86.3004V145.38ZM86.3004 149.654H84.5364V149.854H86.3004V149.654ZM84.6364 149.754V147H84.4364V149.754H84.6364ZM84.5364 146.9H76.9404V147.1H84.5364V146.9ZM77.0404 147V137.694H76.8404V147H77.0404ZM76.9404 137.794H78.7044V137.594H76.9404V137.794ZM78.6044 137.694V145.38H78.8044V137.694H78.6044ZM78.7044 145.48H82.9524V145.28H78.7044V145.48ZM83.0524 145.38V137.694H82.8524V145.38H83.0524ZM82.9524 137.794H84.7164V137.594H82.9524V137.794ZM84.6164 137.694V145.38H84.8164V137.694H84.6164ZM84.7164 145.48H86.3004V145.28H84.7164V145.48ZM86.2004 145.38V149.754H86.4004V145.38H86.2004ZM96.645 142.842V142.942H96.7364L96.7446 142.851L96.645 142.842ZM88.959 142.842V142.742H88.8468L88.8597 142.854L88.959 142.842ZM89.931 144.822L89.9976 144.747L89.931 144.822ZM93.603 145.218L93.6478 145.307L93.6487 145.307L93.603 145.218ZM94.665 144.282L94.6811 144.183L94.6155 144.173L94.5802 144.229L94.665 144.282ZM96.321 144.552L96.4129 144.591L96.4633 144.474L96.3371 144.453L96.321 144.552ZM94.575 146.496L94.5257 146.409L94.5251 146.409L94.575 146.496ZM89.445 146.568L89.3953 146.655L89.3963 146.655L89.445 146.568ZM87.735 144.84L87.6477 144.889L87.735 144.84ZM87.735 139.854L87.8224 139.903L87.735 139.854ZM89.427 138.144L89.4763 138.231L89.4774 138.23L89.427 138.144ZM94.341 138.144L94.2906 138.23L94.2923 138.231L94.341 138.144ZM96.051 139.854L95.9637 139.903L95.964 139.903L96.051 139.854ZM90.057 139.71L89.9939 139.632L89.993 139.633L90.057 139.71ZM89.049 141.402L88.9517 141.379L88.9225 141.502H89.049V141.402ZM94.737 141.402V141.502H94.8619L94.8346 141.38L94.737 141.402ZM93.729 139.728L93.6639 139.804L93.6659 139.806L93.729 139.728ZM96.563 142.284C96.563 142.523 96.557 142.705 96.5454 142.833L96.7446 142.851C96.757 142.715 96.763 142.525 96.763 142.284H96.563ZM96.645 142.742H88.959V142.942H96.645V142.742ZM88.8597 142.854C88.9581 143.703 89.2918 144.386 89.8645 144.897L89.9976 144.747C89.4662 144.274 89.1519 143.637 89.0584 142.83L88.8597 142.854ZM89.8645 144.897C90.4376 145.407 91.1645 145.66 92.037 145.66V145.46C91.2056 145.46 90.5285 145.221 89.9976 144.747L89.8645 144.897ZM92.037 145.66C92.6382 145.66 93.1759 145.543 93.6478 145.307L93.5583 145.129C93.1182 145.349 92.6119 145.46 92.037 145.46V145.66ZM93.6487 145.307C94.1301 145.06 94.4988 144.737 94.7498 144.335L94.5802 144.229C94.3513 144.595 94.012 144.896 93.5574 145.129L93.6487 145.307ZM94.6489 144.381L96.3049 144.651L96.3371 144.453L94.6811 144.183L94.6489 144.381ZM96.2291 144.513C95.8778 145.332 95.3109 145.964 94.5257 146.409L94.6244 146.583C95.4471 146.116 96.0442 145.452 96.4129 144.591L96.2291 144.513ZM94.5251 146.409C93.7493 146.856 92.8847 147.08 91.929 147.08V147.28C92.9174 147.28 93.8168 147.048 94.6249 146.583L94.5251 146.409ZM91.929 147.08C91.0203 147.08 90.2093 146.88 89.4937 146.481L89.3963 146.655C90.1447 147.072 90.9898 147.28 91.929 147.28V147.08ZM89.4948 146.481C88.7784 146.07 88.2215 145.507 87.8224 144.791L87.6477 144.889C88.0646 145.637 88.6476 146.226 89.3953 146.655L89.4948 146.481ZM87.8224 144.791C87.4235 144.076 87.223 143.265 87.223 142.356H87.023C87.023 143.295 87.2306 144.14 87.6477 144.889L87.8224 144.791ZM87.223 142.356C87.223 141.435 87.4236 140.618 87.8224 139.903L87.6477 139.805C87.2304 140.554 87.023 141.405 87.023 142.356H87.223ZM87.8224 139.903C88.2216 139.186 88.7725 138.63 89.4763 138.231L89.3777 138.057C88.6416 138.474 88.0645 139.058 87.6477 139.805L87.8224 139.903ZM89.4774 138.23C90.1805 137.82 90.9848 137.614 91.893 137.614V137.414C90.9533 137.414 90.1136 137.628 89.3766 138.058L89.4774 138.23ZM91.893 137.614C92.789 137.614 93.5874 137.82 94.2906 138.23L94.3914 138.058C93.6547 137.628 92.821 137.414 91.893 137.414V137.614ZM94.2923 138.231C95.0081 138.63 95.5647 139.187 95.9637 139.903L96.1384 139.805C95.7213 139.057 95.1379 138.474 94.3897 138.057L94.2923 138.231ZM95.964 139.903C96.3628 140.607 96.563 141.4 96.563 142.284H96.763C96.763 141.368 96.5553 140.541 96.138 139.805L95.964 139.903ZM91.893 138.98C91.1636 138.98 90.5289 139.197 89.9939 139.632L90.1202 139.788C90.6171 139.383 91.2064 139.18 91.893 139.18V138.98ZM89.993 139.633C89.4706 140.069 89.1242 140.652 88.9517 141.379L89.1463 141.425C89.3099 140.736 89.6355 140.191 90.121 139.787L89.993 139.633ZM89.049 141.502H94.737V141.302H89.049V141.502ZM94.8346 141.38C94.6741 140.664 94.3269 140.086 93.7922 139.65L93.6659 139.806C94.1632 140.21 94.488 140.748 94.6395 141.424L94.8346 141.38ZM93.7941 139.652C93.2704 139.203 92.6347 138.98 91.893 138.98V139.18C92.5913 139.18 93.1797 139.389 93.664 139.804L93.7941 139.652ZM99.4025 137.694V137.594H99.3086L99.3027 137.688L99.4025 137.694ZM105.937 137.694H106.037V137.594H105.937V137.694ZM105.937 147V147.1H106.037V147H105.937ZM104.173 147H104.073V147.1H104.173V147ZM104.173 139.314H104.273V139.214H104.173V139.314ZM101.041 139.314V139.214H100.947L100.941 139.308L101.041 139.314ZM100.771 143.706L100.671 143.7L100.671 143.701L100.771 143.706ZM99.9245 146.226L99.9998 146.292L100 146.291L99.9245 146.226ZM97.1165 147.036L97.0171 147.047L97.0254 147.125L97.1036 147.135L97.1165 147.036ZM96.9365 145.344L96.9442 145.244L96.8244 145.235L96.8371 145.355L96.9365 145.344ZM98.6646 145.002L98.7407 145.067L98.6646 145.002ZM99.0245 143.742L98.9247 143.736L98.9247 143.736L99.0245 143.742ZM99.4025 137.794H105.937V137.594H99.4025V137.794ZM105.837 137.694V147H106.037V137.694H105.837ZM105.937 146.9H104.173V147.1H105.937V146.9ZM104.273 147V139.314H104.073V147H104.273ZM104.173 139.214H101.041V139.414H104.173V139.214ZM100.941 139.308L100.671 143.7L100.87 143.712L101.14 139.32L100.941 139.308ZM100.671 143.701C100.611 144.779 100.333 145.595 99.8486 146.161L100 146.291C100.524 145.681 100.81 144.817 100.87 143.711L100.671 143.701ZM99.8493 146.16C99.3668 146.712 98.7119 146.99 97.8725 146.99V147.19C98.7612 147.19 99.4743 146.892 99.9998 146.292L99.8493 146.16ZM97.8725 146.99C97.6497 146.99 97.4021 146.972 97.1295 146.937L97.1036 147.135C97.383 147.172 97.6394 147.19 97.8725 147.19V146.99ZM97.216 147.025L97.036 145.333L96.8371 145.355L97.0171 147.047L97.216 147.025ZM96.9289 145.444C97.0888 145.456 97.326 145.462 97.6385 145.462V145.262C97.3271 145.262 97.0963 145.256 96.9442 145.244L96.9289 145.444ZM97.6385 145.462C98.1324 145.462 98.5096 145.339 98.7407 145.067L98.5884 144.937C98.4115 145.145 98.1047 145.262 97.6385 145.262V145.462ZM98.7407 145.067C98.9668 144.801 99.0881 144.353 99.1244 143.748L98.9247 143.736C98.889 144.331 98.7703 144.723 98.5884 144.937L98.7407 145.067ZM99.1244 143.748L99.5023 137.7L99.3027 137.688L98.9247 143.736L99.1244 143.748ZM108.37 147H108.27V147.1H108.37V147ZM108.37 137.694V137.594H108.27V137.694H108.37ZM110.134 137.694H110.234V137.594H110.134V137.694ZM110.134 140.43H110.034V140.53H110.134V140.43ZM113.878 140.844L113.922 140.754L113.878 140.844ZM115.192 142.014L115.107 142.067L115.109 142.069L115.192 142.014ZM115.192 145.416L115.108 145.362L115.108 145.362L115.192 145.416ZM113.878 146.586L113.922 146.676L113.924 146.675L113.878 146.586ZM113.356 144.966L113.29 144.891L113.289 144.892L113.356 144.966ZM113.356 142.464L113.289 142.538L113.29 142.539L113.356 142.464ZM110.134 141.978V141.878H110.034V141.978H110.134ZM110.134 145.452H110.034V145.552H110.134V145.452ZM108.47 147V137.694H108.27V147H108.47ZM108.37 137.794H110.134V137.594H108.37V137.794ZM110.034 137.694V140.43H110.234V137.694H110.034ZM110.134 140.53H111.952V140.33H110.134V140.53ZM111.952 140.53C112.659 140.53 113.286 140.665 113.834 140.934L113.922 140.754C113.342 140.471 112.685 140.33 111.952 140.33V140.53ZM113.834 140.934C114.382 141.202 114.806 141.58 115.107 142.067L115.277 141.961C114.955 141.44 114.502 141.038 113.922 140.754L113.834 140.934ZM115.109 142.069C115.421 142.543 115.578 143.088 115.578 143.706H115.778C115.778 143.052 115.611 142.469 115.276 141.959L115.109 142.069ZM115.578 143.706C115.578 144.324 115.421 144.875 115.108 145.362L115.276 145.47C115.611 144.949 115.778 144.36 115.778 143.706H115.578ZM115.108 145.362C114.806 145.838 114.382 146.216 113.833 146.497L113.924 146.675C114.502 146.38 114.954 145.978 115.277 145.47L115.108 145.362ZM113.834 146.496C113.286 146.765 112.659 146.9 111.952 146.9V147.1C112.685 147.1 113.342 146.959 113.922 146.676L113.834 146.496ZM111.952 146.9H108.37V147.1H111.952V146.9ZM111.952 145.552C112.548 145.552 113.041 145.384 113.423 145.04L113.289 144.892C112.951 145.196 112.508 145.352 111.952 145.352V145.552ZM113.422 145.041C113.817 144.697 114.014 144.249 114.014 143.706H113.814C113.814 144.195 113.639 144.587 113.29 144.891L113.422 145.041ZM114.014 143.706C114.014 143.174 113.816 142.732 113.422 142.389L113.29 142.539C113.64 142.844 113.814 143.23 113.814 143.706H114.014ZM113.423 142.39C113.041 142.046 112.548 141.878 111.952 141.878V142.078C112.508 142.078 112.951 142.234 113.289 142.538L113.423 142.39ZM111.952 141.878H110.134V142.078H111.952V141.878ZM110.034 141.978V145.452H110.234V141.978H110.034ZM110.134 145.552H111.952V145.352H110.134V145.552Z" fill="white" mask="url(#path-2-outside-1_923_5618)"/>
<path d="M34.98 114V107.748H33.324V106.62H34.464C34.624 106.62 34.748 106.572 34.836 106.476C34.932 106.38 34.98 106.252 34.98 106.092V105.54H36.216V114H34.98ZM41.2825 114.096C40.6345 114.096 40.0585 113.916 39.5545 113.556C39.0505 113.196 38.6585 112.688 38.3785 112.032C38.0985 111.376 37.9585 110.624 37.9585 109.776C37.9585 108.928 38.0985 108.176 38.3785 107.52C38.6585 106.864 39.0505 106.356 39.5545 105.996C40.0585 105.636 40.6345 105.456 41.2825 105.456C41.9305 105.456 42.5065 105.636 43.0105 105.996C43.5145 106.356 43.9025 106.864 44.1745 107.52C44.4545 108.176 44.5945 108.928 44.5945 109.776C44.5945 110.624 44.4545 111.376 44.1745 112.032C43.9025 112.688 43.5145 113.196 43.0105 113.556C42.5065 113.916 41.9305 114.096 41.2825 114.096ZM41.2825 112.956C41.6825 112.956 42.0345 112.824 42.3385 112.56C42.6505 112.296 42.8905 111.924 43.0585 111.444C43.2265 110.964 43.3105 110.408 43.3105 109.776C43.3105 109.136 43.2265 108.576 43.0585 108.096C42.8905 107.616 42.6505 107.248 42.3385 106.992C42.0345 106.728 41.6825 106.596 41.2825 106.596C40.8745 106.596 40.5185 106.728 40.2145 106.992C39.9105 107.248 39.6745 107.616 39.5065 108.096C39.3385 108.576 39.2545 109.136 39.2545 109.776C39.2545 110.408 39.3385 110.964 39.5065 111.444C39.6745 111.924 39.9105 112.296 40.2145 112.56C40.5185 112.824 40.8745 112.956 41.2825 112.956Z" fill="#F53178"/>
<path d="M46.3398 116.4H45.1758L48.6558 105.24H49.8198L46.3398 116.4ZM51.7964 114V107.748H50.1404V106.62H51.2804C51.4404 106.62 51.5644 106.572 51.6524 106.476C51.7484 106.38 51.7964 106.252 51.7964 106.092V105.54H53.0324V114H51.7964ZM58.0989 114.096C57.4509 114.096 56.8749 113.916 56.3709 113.556C55.8669 113.196 55.4749 112.688 55.1949 112.032C54.9149 111.376 54.7749 110.624 54.7749 109.776C54.7749 108.928 54.9149 108.176 55.1949 107.52C55.4749 106.864 55.8669 106.356 56.3709 105.996C56.8749 105.636 57.4509 105.456 58.0989 105.456C58.7469 105.456 59.3229 105.636 59.8269 105.996C60.3309 106.356 60.7189 106.864 60.9909 107.52C61.2709 108.176 61.4109 108.928 61.4109 109.776C61.4109 110.624 61.2709 111.376 60.9909 112.032C60.7189 112.688 60.3309 113.196 59.8269 113.556C59.3229 113.916 58.7469 114.096 58.0989 114.096ZM58.0989 112.956C58.4989 112.956 58.8509 112.824 59.1549 112.56C59.4669 112.296 59.7069 111.924 59.8749 111.444C60.0429 110.964 60.1269 110.408 60.1269 109.776C60.1269 109.136 60.0429 108.576 59.8749 108.096C59.7069 107.616 59.4669 107.248 59.1549 106.992C58.8509 106.728 58.4989 106.596 58.0989 106.596C57.6909 106.596 57.3349 106.728 57.0309 106.992C56.7269 107.248 56.4909 107.616 56.3229 108.096C56.1549 108.576 56.0709 109.136 56.0709 109.776C56.0709 110.408 56.1549 110.964 56.3229 111.444C56.4909 111.924 56.7269 112.296 57.0309 112.56C57.3349 112.824 57.6909 112.956 58.0989 112.956ZM65.8802 114.096C65.2322 114.096 64.6562 113.916 64.1522 113.556C63.6482 113.196 63.2562 112.688 62.9762 112.032C62.6962 111.376 62.5562 110.624 62.5562 109.776C62.5562 108.928 62.6962 108.176 62.9762 107.52C63.2562 106.864 63.6482 106.356 64.1522 105.996C64.6562 105.636 65.2322 105.456 65.8802 105.456C66.5282 105.456 67.1042 105.636 67.6082 105.996C68.1122 106.356 68.5002 106.864 68.7722 107.52C69.0522 108.176 69.1922 108.928 69.1922 109.776C69.1922 110.624 69.0522 111.376 68.7722 112.032C68.5002 112.688 68.1122 113.196 67.6082 113.556C67.1042 113.916 66.5282 114.096 65.8802 114.096ZM65.8802 112.956C66.2802 112.956 66.6322 112.824 66.9362 112.56C67.2482 112.296 67.4882 111.924 67.6562 111.444C67.8242 110.964 67.9082 110.408 67.9082 109.776C67.9082 109.136 67.8242 108.576 67.6562 108.096C67.4882 107.616 67.2482 107.248 66.9362 106.992C66.6322 106.728 66.2802 106.596 65.8802 106.596C65.4722 106.596 65.1162 106.728 64.8122 106.992C64.5082 107.248 64.2722 107.616 64.1042 108.096C63.9362 108.576 63.8522 109.136 63.8522 109.776C63.8522 110.408 63.9362 110.964 64.1042 111.444C64.2722 111.924 64.5082 112.296 64.8122 112.56C65.1162 112.824 65.4722 112.956 65.8802 112.956ZM73.6614 114.096C73.0134 114.096 72.4374 113.916 71.9334 113.556C71.4294 113.196 71.0374 112.688 70.7574 112.032C70.4774 111.376 70.3374 110.624 70.3374 109.776C70.3374 108.928 70.4774 108.176 70.7574 107.52C71.0374 106.864 71.4294 106.356 71.9334 105.996C72.4374 105.636 73.0134 105.456 73.6614 105.456C74.3094 105.456 74.8854 105.636 75.3894 105.996C75.8934 106.356 76.2814 106.864 76.5534 107.52C76.8334 108.176 76.9734 108.928 76.9734 109.776C76.9734 110.624 76.8334 111.376 76.5534 112.032C76.2814 112.688 75.8934 113.196 75.3894 113.556C74.8854 113.916 74.3094 114.096 73.6614 114.096ZM73.6614 112.956C74.0614 112.956 74.4134 112.824 74.7174 112.56C75.0294 112.296 75.2694 111.924 75.4374 111.444C75.6054 110.964 75.6894 110.408 75.6894 109.776C75.6894 109.136 75.6054 108.576 75.4374 108.096C75.2694 107.616 75.0294 107.248 74.7174 106.992C74.4134 106.728 74.0614 106.596 73.6614 106.596C73.2534 106.596 72.8974 106.728 72.5934 106.992C72.2894 107.248 72.0534 107.616 71.8854 108.096C71.7174 108.576 71.6334 109.136 71.6334 109.776C71.6334 110.408 71.7174 110.964 71.8854 111.444C72.0534 111.924 72.2894 112.296 72.5934 112.56C72.8974 112.824 73.2534 112.956 73.6614 112.956ZM78.3587 116.46V107.796H79.2107L79.4987 108.828C79.7547 108.5 80.0787 108.228 80.4707 108.012C80.8707 107.788 81.3347 107.676 81.8627 107.676C82.4467 107.676 82.9667 107.816 83.4227 108.096C83.8787 108.368 84.2347 108.748 84.4907 109.236C84.7547 109.724 84.8867 110.28 84.8867 110.904C84.8867 111.52 84.7547 112.072 84.4907 112.56C84.2347 113.048 83.8787 113.432 83.4227 113.712C82.9667 113.984 82.4467 114.12 81.8627 114.12C81.3507 114.12 80.8987 114.016 80.5067 113.808C80.1147 113.592 79.7907 113.328 79.5347 113.016V116.46H78.3587ZM81.6107 113.064C82.0107 113.064 82.3667 112.972 82.6787 112.788C82.9907 112.604 83.2307 112.348 83.3987 112.02C83.5747 111.692 83.6627 111.32 83.6627 110.904C83.6627 110.488 83.5747 110.116 83.3987 109.788C83.2307 109.46 82.9907 109.204 82.6787 109.02C82.3667 108.836 82.0107 108.744 81.6107 108.744C81.2107 108.744 80.8507 108.836 80.5307 109.02C80.2187 109.204 79.9747 109.46 79.7987 109.788C79.6227 110.116 79.5347 110.488 79.5347 110.904C79.5347 111.32 79.6227 111.692 79.7987 112.02C79.9747 112.348 80.2187 112.604 80.5307 112.788C80.8507 112.972 81.2107 113.064 81.6107 113.064ZM90.3333 107.796H91.5453L88.9533 114.936C88.7613 115.472 88.5093 115.86 88.1973 116.1C87.8853 116.34 87.4693 116.46 86.9493 116.46H86.0253L85.9173 115.38H87.0213C87.2533 115.38 87.4333 115.328 87.5613 115.224C87.6893 115.128 87.7973 114.956 87.8853 114.708L88.0173 114.348L85.2573 107.796H86.5173L88.4853 112.584H88.6533L90.3333 107.796ZM95.6807 108.396C96.2167 108.396 96.6967 108.516 97.1207 108.756C97.5447 108.996 97.8767 109.332 98.1167 109.764C98.3567 110.196 98.4767 110.688 98.4767 111.24C98.4767 111.792 98.3447 112.288 98.0807 112.728C97.8247 113.168 97.4607 113.512 96.9887 113.76C96.5247 114 95.9967 114.12 95.4047 114.12C94.9007 114.12 94.4487 114.032 94.0487 113.856C93.6487 113.672 93.3127 113.408 93.0407 113.064C92.7927 112.752 92.6087 112.38 92.4887 111.948C92.3687 111.516 92.3087 110.996 92.3087 110.388C92.3087 109.124 92.5727 108.136 93.1007 107.424C93.6367 106.704 94.5287 106.288 95.7767 106.176C96.0807 106.144 96.3127 106.1 96.4727 106.044C96.6327 105.988 96.7487 105.912 96.8207 105.816C96.9007 105.712 96.9567 105.564 96.9887 105.372L98.0327 105.456C98.0007 105.912 97.8847 106.268 97.6847 106.524C97.4927 106.772 97.2407 106.948 96.9287 107.052C96.6247 107.156 96.2487 107.228 95.8007 107.268C95.0007 107.34 94.4327 107.552 94.0967 107.904C93.7687 108.256 93.5767 108.776 93.5207 109.464C94.0327 108.752 94.7527 108.396 95.6807 108.396ZM95.4287 113.064C95.9727 113.064 96.4127 112.896 96.7487 112.56C97.0927 112.224 97.2647 111.788 97.2647 111.252C97.2647 110.716 97.0927 110.284 96.7487 109.956C96.4127 109.62 95.9727 109.452 95.4287 109.452C94.8687 109.452 94.4167 109.62 94.0727 109.956C93.7367 110.284 93.5687 110.716 93.5687 111.252C93.5687 111.788 93.7407 112.224 94.0847 112.56C94.4287 112.896 94.8767 113.064 95.4287 113.064Z" fill="white"/>
<rect x="33" y="101" width="15" height="2" rx="1" fill="#F53178"/>
<rect x="33" y="101" width="82" height="2" rx="1" fill="white"/>
<rect x="33" y="101" width="15" height="2" rx="1" fill="#E52E6A"/>
<g filter="url(#filter1_d_923_5618)">
<ellipse cx="109.754" cy="31.1621" rx="6.16433" ry="1.98539" transform="rotate(35 109.754 31.1621)" fill="#E52E6A"/>
<rect x="104.704" y="27.627" width="12.3287" height="72.4669" transform="rotate(35 104.704 27.627)" fill="#E52E6A"/>
<path d="M72.9851 93.8823C72.908 93.9925 72.7345 94.0924 72.3852 94.1063C72.0419 94.12 71.5868 94.0464 71.0443 93.879C69.9627 93.5453 68.6016 92.8604 67.2261 91.8972C65.8506 90.9341 64.7415 89.8894 64.058 88.9871C63.7151 88.5345 63.4903 88.1321 63.3857 87.8048C63.2794 87.4718 63.3139 87.2747 63.391 87.1645C63.4682 87.0542 63.6417 86.9544 63.991 86.9404C64.3343 86.9267 64.7893 87.0004 65.3319 87.1678C66.4135 87.5015 67.7746 88.1864 69.1501 89.1495C70.5256 90.1127 71.6347 91.1574 72.3182 92.0596C72.6611 92.5122 72.8859 92.9147 72.9905 93.242C73.0968 93.575 73.0623 93.7721 72.9851 93.8823Z" fill="#E52E6A" stroke="white" stroke-width="0.616433"/>
<path d="M102.529 51.6899C102.452 51.8002 102.278 51.9 101.929 51.9139C101.586 51.9277 101.131 51.854 100.588 51.6866C99.5066 51.3529 98.1456 50.668 96.77 49.7049C95.3945 48.7417 94.2855 47.697 93.6019 46.7947C93.2591 46.3422 93.0342 45.9397 92.9297 45.6124C92.8233 45.2794 92.8578 45.0823 92.935 44.9721C93.0122 44.8618 93.1856 44.762 93.5349 44.7481C93.8782 44.7343 94.3333 44.808 94.8758 44.9754C95.9575 45.3091 97.3185 45.994 98.694 46.9571C100.07 47.9203 101.179 48.965 101.862 49.8673C102.205 50.3198 102.43 50.7223 102.534 51.0496C102.641 51.3826 102.606 51.5797 102.529 51.6899Z" fill="#E52E6A" stroke="white" stroke-width="0.616433"/>
<rect x="93.1143" y="44.1787" width="12.3287" height="9.92697" transform="rotate(35 93.1143 44.1787)" fill="#E52E6A"/>
<rect x="91.0137" y="50.7607" width="8.21911" height="22.832" transform="rotate(35 91.0137 50.7607)" fill="white"/>
<ellipse cx="94.38" cy="53.1176" rx="4.10955" ry="0.992697" transform="rotate(35 94.38 53.1176)" fill="white"/>
<ellipse cx="81.2843" cy="71.8207" rx="4.10955" ry="0.992697" transform="rotate(35 81.2843 71.8207)" fill="#E52E6A"/>
<rect x="91.2861" y="52.1631" width="3.08217" height="9.92697" transform="rotate(35 91.2861 52.1631)" fill="#E52E6A"/>
<ellipse cx="92.6903" cy="52.8434" rx="1.54108" ry="0.744523" transform="rotate(35 92.6903 52.8434)" fill="#E52E6A"/>
<ellipse cx="86.997" cy="60.9753" rx="1.54108" ry="0.744523" transform="rotate(35 86.997 60.9753)" fill="white"/>
</g>
<rect x="53.7905" y="56.6201" width="15.5622" height="13.7655" transform="rotate(-29 53.7905 56.6201)" fill="#E52E6A"/>
<rect x="50.4976" y="45.3301" width="10.3748" height="11.4712" transform="rotate(-29 50.4976 45.3301)" fill="#E52E6A"/>
<path d="M73.7655 61.2867C73.8346 61.4113 73.8487 61.6428 73.6554 62.037C73.4676 62.42 73.118 62.8813 72.6161 63.3908C71.6156 64.4063 70.0684 65.5548 68.2101 66.5848C66.3519 67.6149 64.558 68.3184 63.1666 68.6287C62.4686 68.7844 61.8921 68.8364 61.4678 68.7927C61.0311 68.7477 60.8422 68.613 60.7732 68.4884C60.7041 68.3638 60.69 68.1323 60.8833 67.7381C61.0711 67.3551 61.4206 66.8938 61.9226 66.3844C62.9231 65.3688 64.4703 64.2204 66.3285 63.1903C68.1868 62.1603 69.9806 61.4567 71.3721 61.1464C72.0701 60.9908 72.6466 60.9387 73.0709 60.9824C73.5076 61.0274 73.6964 61.1621 73.7655 61.2867Z" fill="#E52E6A" stroke="white" stroke-width="0.707373"/>
<path d="M67.0927 49.2457C67.1617 49.3703 67.1759 49.6018 66.9826 49.996C66.7948 50.379 66.4452 50.8402 65.9433 51.3497C64.9428 52.3653 63.3955 53.5137 61.5373 54.5438C59.679 55.5738 57.8852 56.2774 56.4938 56.5877C55.7957 56.7433 55.2193 56.7954 54.795 56.7517C54.3582 56.7067 54.1694 56.572 54.1003 56.4474C54.0313 56.3228 54.0171 56.0913 54.2104 55.6971C54.3982 55.3141 54.7478 54.8528 55.2497 54.3433C56.2502 53.3278 57.7974 52.1793 59.6557 51.1493C61.5139 50.1192 63.3078 49.4157 64.6992 49.1054C65.3973 48.9497 65.9737 48.8977 66.398 48.9414C66.8347 48.9864 67.0236 49.121 67.0927 49.2457Z" fill="#E52E6A" stroke="white" stroke-width="0.707373"/>
<rect x="53.7905" y="56.6201" width="15.5622" height="4.58849" transform="rotate(-29 53.7905 56.6201)" fill="#E52E6A"/>
<rect x="47.1826" y="36.6738" width="7.78111" height="11.4712" transform="rotate(-29 47.1826 36.6738)" fill="#E52E6A"/>
<path d="M59.386 40.4016C59.3906 40.41 59.4013 40.4364 59.3854 40.5014C59.3691 40.5679 59.3286 40.6574 59.2543 40.77C59.1062 40.9948 58.8496 41.2727 58.4954 41.5857C57.7896 42.2094 56.7313 42.942 55.4878 43.6313C54.2443 44.3206 53.0622 44.8299 52.1593 45.0979C51.7061 45.2324 51.3345 45.3027 51.0654 45.3092C50.9306 45.3125 50.8332 45.2994 50.7682 45.278C50.7046 45.2571 50.6878 45.2341 50.6831 45.2256C50.6785 45.2172 50.6678 45.1908 50.6837 45.1257C50.7 45.0593 50.7405 44.9697 50.8148 44.8571C50.9629 44.6324 51.2195 44.3545 51.5737 44.0415C52.2795 43.4177 53.3378 42.6852 54.5813 41.9959C55.8248 41.3066 57.0069 40.7973 57.9098 40.5293C58.363 40.3948 58.7346 40.3245 59.0037 40.3179C59.1385 40.3146 59.2359 40.3277 59.3009 40.3492C59.3645 40.3701 59.3813 40.3931 59.386 40.4016Z" fill="#E52E6A" stroke="white" stroke-width="0.424424"/>
<rect x="50.4976" y="45.3301" width="10.3748" height="2.29424" transform="rotate(-29 50.4976 45.3301)" fill="#E52E6A"/>
<ellipse cx="50.5853" cy="34.7878" rx="3.89055" ry="3.44137" transform="rotate(-29 50.5853 34.7878)" fill="#E52E6A"/>
<path d="M47.7944 29.7789C48.9181 29.1572 53.4217 31.9059 53.4217 31.9059C53.4217 31.9059 48.2741 38.6953 46.6162 35.6782C44.9582 32.6611 46.6706 30.4005 47.7944 29.7789Z" fill="#E52E6A"/>
<ellipse cx="62.2645" cy="55.8577" rx="6.48426" ry="1.14712" transform="rotate(-29 62.2645 55.8577)" fill="white"/>
<rect x="56.5933" y="59.001" width="12.9685" height="4.58849" transform="rotate(-29 56.5933 59.001)" fill="white"/>
<ellipse cx="64.4891" cy="59.8704" rx="6.48426" ry="1.14712" transform="rotate(-29 64.4891 59.8704)" fill="#E52E6A"/>
<defs>
<filter id="filter0_d_923_5618" x="0" y="0" width="149" height="177" filterUnits="userSpaceOnUse" color-interpolation-filters="sRGB">
<feFlood flood-opacity="0" result="BackgroundImageFix"/>
<feColorMatrix in="SourceAlpha" type="matrix" values="0 0 0 0 0 0 0 0 0 0 0 0 0 0 0 0 0 0 127 0" result="hardAlpha"/>
<feOffset dy="4"/>
<feGaussianBlur stdDeviation="5"/>
<feComposite in2="hardAlpha" operator="out"/>
<feColorMatrix type="matrix" values="0 0 0 0 0 0 0 0 0 0 0 0 0 0 0 0 0 0 0.25 0"/>
<feBlend mode="normal" in2="BackgroundImageFix" result="effect1_dropShadow_923_5618"/>
<feBlend mode="normal" in="SourceGraphic" in2="effect1_dropShadow_923_5618" result="shape"/>
</filter>
<filter id="filter1_d_923_5618" x="43.507" y="12.4385" width="90.9279" height="106.672" filterUnits="userSpaceOnUse" color-interpolation-filters="sRGB">
<feFlood flood-opacity="0" result="BackgroundImageFix"/>
<feColorMatrix in="SourceAlpha" type="matrix" values="0 0 0 0 0 0 0 0 0 0 0 0 0 0 0 0 0 0 127 0" result="hardAlpha"/>
<feOffset dy="4.93146"/>
<feGaussianBlur stdDeviation="9.2465"/>
<feComposite in2="hardAlpha" operator="out"/>
<feColorMatrix type="matrix" values="0 0 0 0 0 0 0 0 0 0 0 0 0 0 0 0 0 0 0.25 0"/>
<feBlend mode="normal" in2="BackgroundImageFix" result="effect1_dropShadow_923_5618"/>
<feBlend mode="normal" in="SourceGraphic" in2="effect1_dropShadow_923_5618" result="shape"/>
</filter>
</defs>
</svg>
